<?xml version="1.0" encoding="UTF-8" standalone="no"?>
<!-- Created with Inkscape (http://www.inkscape.org/) -->

<svg
   xmlns:dc="http://purl.org/dc/elements/1.1/"
   xmlns:cc="http://creativecommons.org/ns#"
   xmlns:rdf="http://www.w3.org/1999/02/22-rdf-syntax-ns#"
   xmlns:svg="http://www.w3.org/2000/svg"
   xmlns="http://www.w3.org/2000/svg"
   xmlns:sodipodi="http://sodipodi.sourceforge.net/DTD/sodipodi-0.dtd"
   xmlns:inkscape="http://www.inkscape.org/namespaces/inkscape"
   width="13in"
   height="8.5in"
   viewBox="0 0 1170 765"
   id="svg2"
   version="1.1"
   inkscape:version="0.91 r13725"
   sodipodi:docname="robot_stand-2.75mm_masonite.svg">
  <sodipodi:namedview
     id="base"
     pagecolor="#ffffff"
     bordercolor="#666666"
     borderopacity="1.0"
     inkscape:pageopacity="0.0"
     inkscape:pageshadow="2"
     inkscape:zoom="0.7"
     inkscape:cx="495.72688"
     inkscape:cy="341.69841"
     inkscape:document-units="in"
     inkscape:current-layer="layer1"
     showgrid="false"
     units="in"
     inkscape:snap-bbox="true"
     inkscape:bbox-paths="true"
     inkscape:bbox-nodes="true"
     inkscape:snap-bbox-edge-midpoints="true"
     inkscape:snap-bbox-midpoints="true"
     inkscape:object-paths="true"
     inkscape:snap-intersection-paths="true"
     inkscape:object-nodes="true"
     inkscape:snap-smooth-nodes="true"
     inkscape:snap-midpoints="true"
     inkscape:snap-grids="false"
     inkscape:snap-object-midpoints="true"
     inkscape:snap-center="true"
     inkscape:snap-text-baseline="true"
     inkscape:window-width="1920"
     inkscape:window-height="1137"
     inkscape:window-x="-8"
     inkscape:window-y="-8"
     inkscape:window-maximized="1" />
  <defs
     id="defs4" />
  <metadata
     id="metadata7">
    <rdf:RDF>
      <cc:Work
         rdf:about="">
        <dc:format>image/svg+xml</dc:format>
        <dc:type
           rdf:resource="http://purl.org/dc/dcmitype/StillImage" />
        <dc:title />
      </cc:Work>
    </rdf:RDF>
  </metadata>
  <g
     transform="translate(0,-287.3622)"
     id="layer1"
     inkscape:groupmode="layer"
     inkscape:label="Layer 1">
    <path
       style="color:#000000;clip-rule:nonzero;display:inline;overflow:visible;visibility:visible;opacity:1;isolation:auto;mix-blend-mode:normal;color-interpolation:sRGB;color-interpolation-filters:linearRGB;solid-color:#000000;solid-opacity:1;fill:none;fill-opacity:1;fill-rule:evenodd;stroke:#000000;stroke-width:0.3125;stroke-linecap:butt;stroke-linejoin:miter;stroke-miterlimit:4;stroke-dasharray:none;stroke-dashoffset:0;stroke-opacity:1;marker:none;color-rendering:auto;image-rendering:auto;shape-rendering:auto;text-rendering:auto;enable-background:accumulate"
       d="M 304.49023 298.17773 L 304.49023 343.20117 L 295.07422 343.20117 L 295.07422 359.85352 L 327.37109 359.85352 L 327.37109 351.84375 L 336.91211 351.84375 L 336.91211 359.85352 L 353.21289 359.85352 L 353.21289 359.88086 L 364.15039 359.88086 L 364.15039 371.19336 L 353.21289 371.19336 L 336.91211 371.19336 L 336.91211 379.20312 L 327.37109 379.20312 L 327.37109 371.19336 L 295.07422 371.19336 L 295.07422 387.8418 L 304.49023 387.8418 L 304.49023 432.86523 L 656.20117 432.86523 L 656.20117 387.8418 L 665.61719 387.8418 L 665.61719 371.19336 L 633.32031 371.19336 L 633.32031 379.20312 L 623.7793 379.20312 L 623.7793 371.19336 L 607.47852 371.19336 L 596.54102 371.19336 L 596.54102 359.87891 L 607.47852 359.87891 L 607.47852 359.85352 L 623.7793 359.85352 L 623.7793 351.84375 L 633.32031 351.84375 L 633.32031 359.85352 L 665.61719 359.85352 L 665.61719 343.20117 L 656.20117 343.20117 L 656.20117 298.17773 L 304.49023 298.17773 z "
       transform="translate(0,287.3622)"
       id="rect7614" />
    <g
       id="g8351">
      <g
         id="g7608"
         transform="translate(-1129.9392,-158.13545)">
        <path
           inkscape:connector-curvature="0"
           id="rect6851"
           d="m 1203.253,606.56728 0,566.55472 0,7.166 1037.6367,0 0,-7.166 0,0 0,-566.55472 -37.377,0 0,34.3457 -37.375,0 0,231.44922 -142.4238,0 0,128.2383 -603.2852,0 0,-128.2383 -142.4258,0 0,-231.44922 -37.375,0 0,-34.3457 -37.3769,0 z"
           style="color:#000000;clip-rule:nonzero;display:inline;overflow:visible;visibility:visible;opacity:1;isolation:auto;mix-blend-mode:normal;color-interpolation:sRGB;color-interpolation-filters:linearRGB;solid-color:#000000;solid-opacity:1;fill:none;fill-opacity:1;fill-rule:evenodd;stroke:#000000;stroke-width:0.3125;stroke-linecap:butt;stroke-linejoin:miter;stroke-miterlimit:4;stroke-dasharray:none;stroke-dashoffset:0;stroke-opacity:1;marker:none;color-rendering:auto;image-rendering:auto;shape-rendering:auto;text-rendering:auto;enable-background:accumulate" />
        <rect
           y="1068.1234"
           x="1717.3018"
           height="44.640629"
           width="9.5390997"
           id="rect7464"
           style="color:#000000;clip-rule:nonzero;display:inline;overflow:visible;visibility:visible;opacity:1;isolation:auto;mix-blend-mode:normal;color-interpolation:sRGB;color-interpolation-filters:linearRGB;solid-color:#000000;solid-opacity:1;fill:none;fill-opacity:1;fill-rule:evenodd;stroke:#000000;stroke-width:0.3125;stroke-linecap:butt;stroke-linejoin:miter;stroke-miterlimit:4;stroke-dasharray:none;stroke-dashoffset:0;stroke-opacity:1;marker:none;color-rendering:auto;image-rendering:auto;shape-rendering:auto;text-rendering:auto;enable-background:accumulate" />
      </g>
      <rect
         y="-954.62854"
         x="-755.31671"
         height="44.640629"
         width="9.5390997"
         id="rect7602-2"
         style="color:#000000;clip-rule:nonzero;display:inline;overflow:visible;visibility:visible;opacity:1;isolation:auto;mix-blend-mode:normal;color-interpolation:sRGB;color-interpolation-filters:linearRGB;solid-color:#000000;solid-opacity:1;fill:none;fill-opacity:1;fill-rule:evenodd;stroke:#000000;stroke-width:0.3125;stroke-linecap:butt;stroke-linejoin:miter;stroke-miterlimit:4;stroke-dasharray:none;stroke-dashoffset:0;stroke-opacity:1;marker:none;color-rendering:auto;image-rendering:auto;shape-rendering:auto;text-rendering:auto;enable-background:accumulate"
         transform="scale(-1,-1)" />
      <rect
         y="-954.62854"
         x="-438.33035"
         height="44.640629"
         width="9.5390997"
         id="rect7602-7"
         style="color:#000000;clip-rule:nonzero;display:inline;overflow:visible;visibility:visible;opacity:1;isolation:auto;mix-blend-mode:normal;color-interpolation:sRGB;color-interpolation-filters:linearRGB;solid-color:#000000;solid-opacity:1;fill:none;fill-opacity:1;fill-rule:evenodd;stroke:#000000;stroke-width:0.3125;stroke-linecap:butt;stroke-linejoin:miter;stroke-miterlimit:4;stroke-dasharray:none;stroke-dashoffset:0;stroke-opacity:1;marker:none;color-rendering:auto;image-rendering:auto;shape-rendering:auto;text-rendering:auto;enable-background:accumulate"
         transform="scale(-1,-1)" />
    </g>
    <g
       id="g4189">
      <path
         id="rect6849"
         transform="translate(0,287.3622)"
         d="M 344.83398 50.716797 L 344.83398 106.9668 L 300.14648 106.9668 L 300.14648 129.4668 L 344.83398 129.4668 L 344.83398 140.4043 L 641.41406 140.4043 L 704.83398 203.82227 L 704.83398 394.12891 L 641.41406 457.54688 L 344.83398 457.54688 L 344.83398 468.48438 L 300.14648 468.48438 L 300.14648 490.98438 L 344.83398 490.98438 L 344.83398 547.23438 L 704.83398 547.23438 L 884.52148 547.23438 L 884.52148 457.54688 L 884.52148 140.4043 L 884.52148 50.716797 L 704.83398 50.716797 L 344.83398 50.716797 z "
         style="color:#000000;clip-rule:nonzero;display:inline;overflow:visible;visibility:visible;opacity:1;isolation:auto;mix-blend-mode:normal;color-interpolation:sRGB;color-interpolation-filters:linearRGB;solid-color:#000000;solid-opacity:1;fill:none;fill-opacity:1;fill-rule:evenodd;stroke:#000000;stroke-width:0.3125;stroke-linecap:butt;stroke-linejoin:miter;stroke-miterlimit:4;stroke-dasharray:none;stroke-dashoffset:0;stroke-opacity:1;marker:none;color-rendering:auto;image-rendering:auto;shape-rendering:auto;text-rendering:auto;enable-background:accumulate" />
      <rect
         y="-816.99738"
         x="581.5675"
         height="44.640629"
         width="9.5390997"
         id="rect7602"
         style="color:#000000;clip-rule:nonzero;display:inline;overflow:visible;visibility:visible;opacity:1;isolation:auto;mix-blend-mode:normal;color-interpolation:sRGB;color-interpolation-filters:linearRGB;solid-color:#000000;solid-opacity:1;fill:none;fill-opacity:1;fill-rule:evenodd;stroke:#000000;stroke-width:0.3125;stroke-linecap:butt;stroke-linejoin:miter;stroke-miterlimit:4;stroke-dasharray:none;stroke-dashoffset:0;stroke-opacity:1;marker:none;color-rendering:auto;image-rendering:auto;shape-rendering:auto;text-rendering:auto;enable-background:accumulate"
         transform="matrix(0,1,-1,0,0,0)" />
      <rect
         transform="matrix(0,1,-1,0,0,0)"
         style="color:#000000;clip-rule:nonzero;display:inline;overflow:visible;visibility:visible;opacity:1;isolation:auto;mix-blend-mode:normal;color-interpolation:sRGB;color-interpolation-filters:linearRGB;solid-color:#000000;solid-opacity:1;fill:none;fill-opacity:1;fill-rule:evenodd;stroke:#000000;stroke-width:0.3125;stroke-linecap:butt;stroke-linejoin:miter;stroke-miterlimit:4;stroke-dasharray:none;stroke-dashoffset:0;stroke-opacity:1;marker:none;color-rendering:auto;image-rendering:auto;shape-rendering:auto;text-rendering:auto;enable-background:accumulate"
         id="rect8340"
         width="9.5390997"
         height="44.640629"
         x="423.1525"
         y="-816.99731" />
      <rect
         transform="matrix(0,1,-1,0,0,0)"
         style="color:#000000;clip-rule:nonzero;display:inline;overflow:visible;visibility:visible;opacity:1;isolation:auto;mix-blend-mode:normal;color-interpolation:sRGB;color-interpolation-filters:linearRGB;solid-color:#000000;solid-opacity:1;fill:none;fill-opacity:1;fill-rule:evenodd;stroke:#000000;stroke-width:0.3125;stroke-linecap:butt;stroke-linejoin:miter;stroke-miterlimit:4;stroke-dasharray:none;stroke-dashoffset:0;stroke-opacity:1;marker:none;color-rendering:auto;image-rendering:auto;shape-rendering:auto;text-rendering:auto;enable-background:accumulate"
         id="rect8342"
         width="9.5390997"
         height="44.640629"
         x="740.13885"
         y="-816.99731" />
    </g>
    <path
       style="color:#000000;clip-rule:nonzero;display:inline;overflow:visible;visibility:visible;opacity:1;isolation:auto;mix-blend-mode:normal;color-interpolation:sRGB;color-interpolation-filters:linearRGB;solid-color:#000000;solid-opacity:1;fill:none;fill-opacity:1;fill-rule:evenodd;stroke:#000000;stroke-width:0.3125;stroke-linecap:butt;stroke-linejoin:miter;stroke-miterlimit:4;stroke-dasharray:none;stroke-dashoffset:0;stroke-opacity:1;marker:none;color-rendering:auto;image-rendering:auto;shape-rendering:auto;text-rendering:auto;enable-background:accumulate"
       d="M 256.49023 148.17773 L 256.49023 193.20117 L 247.07422 193.20117 L 247.07422 209.85352 L 279.37109 209.85352 L 279.37109 201.84375 L 288.91211 201.84375 L 288.91211 209.85352 L 305.21289 209.85352 L 305.21289 209.88086 L 316.15039 209.88086 L 316.15039 221.19336 L 305.21289 221.19336 L 288.91211 221.19336 L 288.91211 229.20312 L 279.37109 229.20312 L 279.37109 221.19336 L 247.07422 221.19336 L 247.07422 237.8418 L 256.49023 237.8418 L 256.49023 282.86523 L 608.20117 282.86523 L 608.20117 237.8418 L 617.61719 237.8418 L 617.61719 221.19336 L 585.32031 221.19336 L 585.32031 229.20312 L 575.7793 229.20312 L 575.7793 221.19336 L 559.47852 221.19336 L 548.54102 221.19336 L 548.54102 209.87891 L 559.47852 209.87891 L 559.47852 209.85352 L 575.7793 209.85352 L 575.7793 201.84375 L 585.32031 201.84375 L 585.32031 209.85352 L 617.61719 209.85352 L 617.61719 193.20117 L 608.20117 193.20117 L 608.20117 148.17773 L 256.49023 148.17773 z "
       transform="translate(0,287.3622)"
       id="path8358" />
    <path
       style="color:#000000;clip-rule:nonzero;display:inline;overflow:visible;visibility:visible;opacity:1;isolation:auto;mix-blend-mode:normal;color-interpolation:sRGB;color-interpolation-filters:linearRGB;solid-color:#000000;solid-opacity:1;fill:none;fill-opacity:1;fill-rule:evenodd;stroke:#000000;stroke-width:0.3125;stroke-linecap:butt;stroke-linejoin:miter;stroke-miterlimit:4;stroke-dasharray:none;stroke-dashoffset:0;stroke-opacity:1;marker:none;color-rendering:auto;image-rendering:auto;shape-rendering:auto;text-rendering:auto;enable-background:accumulate"
       d="M 939.08008 52.328125 L 939.08008 61.744141 L 894.05664 61.744141 L 894.05664 413.45508 L 939.08008 413.45508 L 939.08008 422.87109 L 955.72852 422.87109 L 955.72852 390.57422 L 947.71875 390.57422 L 947.71875 381.0332 L 955.72852 381.0332 L 955.72852 364.73242 L 955.72852 353.79492 L 967.04297 353.79492 L 967.04297 364.73242 L 967.06836 364.73242 L 967.06836 381.0332 L 975.07812 381.0332 L 975.07812 390.57422 L 967.06836 390.57422 L 967.06836 422.87109 L 983.7207 422.87109 L 983.7207 413.45508 L 1028.7441 413.45508 L 1028.7441 61.744141 L 983.7207 61.744141 L 983.7207 52.328125 L 967.06836 52.328125 L 967.06836 84.625 L 975.07812 84.625 L 975.07812 94.166016 L 967.06836 94.166016 L 967.06836 110.4668 L 967.04102 110.4668 L 967.04102 121.4043 L 955.72852 121.4043 L 955.72852 110.4668 L 955.72852 94.166016 L 947.71875 94.166016 L 947.71875 84.625 L 955.72852 84.625 L 955.72852 52.328125 L 939.08008 52.328125 z "
       transform="translate(0,287.3622)"
       id="path8358-0" />
    <g
       id="g9225"
       transform="translate(92.986603,882.33166)"
       inkscape:label="Hershey Text">
      <path
         id="path9227"
         transform="translate(5,0)"
         d="m 5,-12 -2,0 -2,1 -1,3 0,17 m -3,-14 7,0"
         style="fill:none;stroke:#000000"
         inkscape:connector-curvature="0" />
      <path
         id="path9229"
         transform="translate(21,0)"
         d="m -1,-5 -2,1 -2,2 -1,3 0,2 1,3 2,2 2,1 L 2,9 4,8 6,6 7,3 7,1 6,-2 4,-4 2,-5 -1,-5"
         style="fill:none;stroke:#000000"
         inkscape:connector-curvature="0" />
      <path
         id="path9231"
         transform="translate(38,0)"
         d="m -3,-5 0,14 m 0,-8 1,-3 2,-2 2,-1 3,0"
         style="fill:none;stroke:#000000"
         inkscape:connector-curvature="0" />
      <path
         id="path9233"
         transform="translate(52,0)"
         d=""
         style="fill:none;stroke:#000000"
         inkscape:connector-curvature="0" />
      <path
         id="path9235"
         transform="translate(70,0)"
         d="m -6,-7 0,-1 1,-2 1,-1 2,-1 4,0 2,1 1,1 1,2 0,2 L 5,-4 3,-1 -7,9 7,9"
         style="fill:none;stroke:#000000"
         inkscape:connector-curvature="0" />
      <path
         id="path9237"
         transform="translate(84,0)"
         d="M 0,4 -1,5 0,6 1,5 0,4"
         style="fill:none;stroke:#000000"
         inkscape:connector-curvature="0" />
      <path
         id="path9239"
         transform="translate(98,0)"
         d="M 7,-12 -3,9 m -4,-21 14,0"
         style="fill:none;stroke:#000000"
         inkscape:connector-curvature="0" />
      <path
         id="path9241"
         transform="translate(118,0)"
         d="m 5,-12 -10,0 -1,9 1,-1 3,-1 3,0 3,1 2,2 L 7,1 7,3 6,6 4,8 1,9 -2,9 -5,8 -6,7 -7,5"
         style="fill:none;stroke:#000000"
         inkscape:connector-curvature="0" />
      <path
         id="path9243"
         transform="translate(143,0)"
         d="m -11,-5 0,14 m 0,-10 3,-3 2,-1 3,0 2,1 1,3 0,10 m 0,-10 3,-3 2,-1 3,0 2,1 1,3 0,10"
         style="fill:none;stroke:#000000"
         inkscape:connector-curvature="0" />
      <path
         id="path9245"
         transform="translate(173,0)"
         d="m -11,-5 0,14 m 0,-10 3,-3 2,-1 3,0 2,1 1,3 0,10 m 0,-10 3,-3 2,-1 3,0 2,1 1,3 0,10"
         style="fill:none;stroke:#000000"
         inkscape:connector-curvature="0" />
      <path
         id="path9247"
         transform="translate(196,0)"
         d=""
         style="fill:none;stroke:#000000"
         inkscape:connector-curvature="0" />
      <path
         id="path9249"
         transform="translate(219,0)"
         d="m -11,-5 0,14 m 0,-10 3,-3 2,-1 3,0 2,1 1,3 0,10 m 0,-10 3,-3 2,-1 3,0 2,1 1,3 0,10"
         style="fill:none;stroke:#000000"
         inkscape:connector-curvature="0" />
      <path
         id="path9251"
         transform="translate(243,0)"
         d="M 6,-5 6,9 M 6,-2 4,-4 2,-5 l -3,0 -2,1 -2,2 -1,3 0,2 1,3 2,2 2,1 3,0 2,-1 2,-2"
         style="fill:none;stroke:#000000"
         inkscape:connector-curvature="0" />
      <path
         id="path9253"
         transform="translate(261,0)"
         d="m 6,-2 -1,-2 -3,-1 -3,0 -3,1 -1,2 1,2 2,1 L 3,2 5,3 6,5 6,6 5,8 2,9 -1,9 -4,8 -5,6"
         style="fill:none;stroke:#000000"
         inkscape:connector-curvature="0" />
      <path
         id="path9255"
         transform="translate(279,0)"
         d="m -1,-5 -2,1 -2,2 -1,3 0,2 1,3 2,2 2,1 L 2,9 4,8 6,6 7,3 7,1 6,-2 4,-4 2,-5 -1,-5"
         style="fill:none;stroke:#000000"
         inkscape:connector-curvature="0" />
      <path
         id="path9257"
         transform="translate(298,0)"
         d="m -5,-5 0,14 m 0,-10 3,-3 2,-1 3,0 2,1 1,3 0,10"
         style="fill:none;stroke:#000000"
         inkscape:connector-curvature="0" />
      <path
         id="path9259"
         transform="translate(312,0)"
         d="m -1,-12 1,1 1,-1 -1,-1 -1,1 m 1,7 0,14"
         style="fill:none;stroke:#000000"
         inkscape:connector-curvature="0" />
      <path
         id="path9261"
         transform="translate(321,0)"
         d="M 0,-12 0,5 1,8 3,9 5,9 m -8,-14 7,0"
         style="fill:none;stroke:#000000"
         inkscape:connector-curvature="0" />
      <path
         id="path9263"
         transform="translate(337,0)"
         d="M -6,1 6,1 6,-1 5,-3 4,-4 2,-5 l -3,0 -2,1 -2,2 -1,3 0,2 1,3 2,2 2,1 3,0 2,-1 2,-2"
         style="fill:none;stroke:#000000"
         inkscape:connector-curvature="0" />
    </g>
  </g>
</svg>
