<?xml version="1.0" encoding="UTF-8" standalone="no"?>
<!-- Created with Inkscape (http://www.inkscape.org/) -->

<svg
   xmlns:dc="http://purl.org/dc/elements/1.1/"
   xmlns:cc="http://creativecommons.org/ns#"
   xmlns:rdf="http://www.w3.org/1999/02/22-rdf-syntax-ns#"
   xmlns:svg="http://www.w3.org/2000/svg"
   xmlns="http://www.w3.org/2000/svg"
   xmlns:sodipodi="http://sodipodi.sourceforge.net/DTD/sodipodi-0.dtd"
   xmlns:inkscape="http://www.inkscape.org/namespaces/inkscape"
   width="13in"
   height="8.5in"
   viewBox="0 0 1170 765"
   id="svg2"
   version="1.1"
   inkscape:version="0.91 r13725"
   sodipodi:docname="robot_stand-2.75mm_masonite.svg">
  <sodipodi:namedview
     id="base"
     pagecolor="#ffffff"
     bordercolor="#666666"
     borderopacity="1.0"
     inkscape:pageopacity="0.0"
     inkscape:pageshadow="2"
     inkscape:zoom="0.7"
     inkscape:cx="702.54827"
     inkscape:cy="382.02269"
     inkscape:document-units="in"
     inkscape:current-layer="layer1"
     showgrid="false"
     units="in"
     inkscape:snap-bbox="true"
     inkscape:bbox-paths="true"
     inkscape:bbox-nodes="true"
     inkscape:snap-bbox-edge-midpoints="true"
     inkscape:snap-bbox-midpoints="true"
     inkscape:object-paths="true"
     inkscape:snap-intersection-paths="true"
     inkscape:object-nodes="true"
     inkscape:snap-smooth-nodes="true"
     inkscape:snap-midpoints="true"
     inkscape:snap-grids="false"
     inkscape:snap-object-midpoints="true"
     inkscape:snap-center="true"
     inkscape:snap-text-baseline="true"
     inkscape:window-width="1920"
     inkscape:window-height="1137"
     inkscape:window-x="-8"
     inkscape:window-y="-8"
     inkscape:window-maximized="1" />
  <defs
     id="defs4" />
  <metadata
     id="metadata7">
    <rdf:RDF>
      <cc:Work
         rdf:about="">
        <dc:format>image/svg+xml</dc:format>
        <dc:type
           rdf:resource="http://purl.org/dc/dcmitype/StillImage" />
        <dc:title />
      </cc:Work>
    </rdf:RDF>
  </metadata>
  <g
     transform="translate(0,-287.3622)"
     id="layer1"
     inkscape:groupmode="layer"
     inkscape:label="Layer 1">
    <path
       id="rect7614"
       d="m 665.61648,630.56265 -9.4161,0 0,-45.02344 -351.71088,0 0,45.02344 -9.416,0 0,16.65234 32.2969,0 0,-8.00976 9.541,0 0,8.00976 16.3008,0 0,11.33985 -16.3008,0 0,8.00976 -9.541,0 0,-8.00976 -32.2969,0 0,16.64843 9.416,0 0,45.02348 351.71088,0 0,-45.02348 9.4161,0 0,-16.64843 -32.2969,0 0,8.00976 -9.541,0 0,-8.00976 -16.3008,0 0,-11.33985 16.3008,0 0,-8.00976 9.541,0 0,8.00976 32.2969,0 0,-16.65234 z"
       style="color:#000000;clip-rule:nonzero;display:inline;overflow:visible;visibility:visible;opacity:1;isolation:auto;mix-blend-mode:normal;color-interpolation:sRGB;color-interpolation-filters:linearRGB;solid-color:#000000;solid-opacity:1;fill:none;fill-opacity:1;fill-rule:evenodd;stroke:#000000;stroke-width:0.3125;stroke-linecap:butt;stroke-linejoin:miter;stroke-miterlimit:4;stroke-dasharray:none;stroke-dashoffset:0;stroke-opacity:1;marker:none;color-rendering:auto;image-rendering:auto;shape-rendering:auto;text-rendering:auto;enable-background:accumulate"
       inkscape:connector-curvature="0" />
    <g
       id="g8351">
      <g
         id="g7608"
         transform="translate(-1129.9392,-158.13545)">
        <path
           inkscape:connector-curvature="0"
           id="rect6851"
           d="m 1203.253,606.56728 0,566.55472 0,7.166 1037.6367,0 0,-7.166 0,0 0,-566.55472 -37.377,0 0,34.3457 -37.375,0 0,231.44922 -142.4238,0 0,128.2383 -603.2852,0 0,-128.2383 -142.4258,0 0,-231.44922 -37.375,0 0,-34.3457 -37.3769,0 z"
           style="color:#000000;clip-rule:nonzero;display:inline;overflow:visible;visibility:visible;opacity:1;isolation:auto;mix-blend-mode:normal;color-interpolation:sRGB;color-interpolation-filters:linearRGB;solid-color:#000000;solid-opacity:1;fill:none;fill-opacity:1;fill-rule:evenodd;stroke:#000000;stroke-width:0.3125;stroke-linecap:butt;stroke-linejoin:miter;stroke-miterlimit:4;stroke-dasharray:none;stroke-dashoffset:0;stroke-opacity:1;marker:none;color-rendering:auto;image-rendering:auto;shape-rendering:auto;text-rendering:auto;enable-background:accumulate" />
        <rect
           y="1068.1234"
           x="1717.3018"
           height="44.640629"
           width="9.5390997"
           id="rect7464"
           style="color:#000000;clip-rule:nonzero;display:inline;overflow:visible;visibility:visible;opacity:1;isolation:auto;mix-blend-mode:normal;color-interpolation:sRGB;color-interpolation-filters:linearRGB;solid-color:#000000;solid-opacity:1;fill:none;fill-opacity:1;fill-rule:evenodd;stroke:#000000;stroke-width:0.3125;stroke-linecap:butt;stroke-linejoin:miter;stroke-miterlimit:4;stroke-dasharray:none;stroke-dashoffset:0;stroke-opacity:1;marker:none;color-rendering:auto;image-rendering:auto;shape-rendering:auto;text-rendering:auto;enable-background:accumulate" />
      </g>
      <rect
         y="-954.62854"
         x="-755.31671"
         height="44.640629"
         width="9.5390997"
         id="rect7602-2"
         style="color:#000000;clip-rule:nonzero;display:inline;overflow:visible;visibility:visible;opacity:1;isolation:auto;mix-blend-mode:normal;color-interpolation:sRGB;color-interpolation-filters:linearRGB;solid-color:#000000;solid-opacity:1;fill:none;fill-opacity:1;fill-rule:evenodd;stroke:#000000;stroke-width:0.3125;stroke-linecap:butt;stroke-linejoin:miter;stroke-miterlimit:4;stroke-dasharray:none;stroke-dashoffset:0;stroke-opacity:1;marker:none;color-rendering:auto;image-rendering:auto;shape-rendering:auto;text-rendering:auto;enable-background:accumulate"
         transform="scale(-1,-1)" />
      <rect
         y="-954.62854"
         x="-438.33035"
         height="44.640629"
         width="9.5390997"
         id="rect7602-7"
         style="color:#000000;clip-rule:nonzero;display:inline;overflow:visible;visibility:visible;opacity:1;isolation:auto;mix-blend-mode:normal;color-interpolation:sRGB;color-interpolation-filters:linearRGB;solid-color:#000000;solid-opacity:1;fill:none;fill-opacity:1;fill-rule:evenodd;stroke:#000000;stroke-width:0.3125;stroke-linecap:butt;stroke-linejoin:miter;stroke-miterlimit:4;stroke-dasharray:none;stroke-dashoffset:0;stroke-opacity:1;marker:none;color-rendering:auto;image-rendering:auto;shape-rendering:auto;text-rendering:auto;enable-background:accumulate"
         transform="scale(-1,-1)" />
    </g>
    <g
       id="g4189">
      <path
         id="rect6849"
         transform="translate(0,287.3622)"
         d="M 344.83398 50.716797 L 344.83398 106.9668 L 300.14648 106.9668 L 300.14648 129.4668 L 344.83398 129.4668 L 344.83398 140.4043 L 641.41406 140.4043 L 704.83398 203.82227 L 704.83398 394.12891 L 641.41406 457.54688 L 344.83398 457.54688 L 344.83398 468.48438 L 300.14648 468.48438 L 300.14648 490.98438 L 344.83398 490.98438 L 344.83398 547.23438 L 704.83398 547.23438 L 884.52148 547.23438 L 884.52148 457.54688 L 884.52148 140.4043 L 884.52148 50.716797 L 704.83398 50.716797 L 344.83398 50.716797 z "
         style="color:#000000;clip-rule:nonzero;display:inline;overflow:visible;visibility:visible;opacity:1;isolation:auto;mix-blend-mode:normal;color-interpolation:sRGB;color-interpolation-filters:linearRGB;solid-color:#000000;solid-opacity:1;fill:none;fill-opacity:1;fill-rule:evenodd;stroke:#000000;stroke-width:0.3125;stroke-linecap:butt;stroke-linejoin:miter;stroke-miterlimit:4;stroke-dasharray:none;stroke-dashoffset:0;stroke-opacity:1;marker:none;color-rendering:auto;image-rendering:auto;shape-rendering:auto;text-rendering:auto;enable-background:accumulate" />
      <rect
         y="-816.99738"
         x="581.5675"
         height="44.640629"
         width="9.5390997"
         id="rect7602"
         style="color:#000000;clip-rule:nonzero;display:inline;overflow:visible;visibility:visible;opacity:1;isolation:auto;mix-blend-mode:normal;color-interpolation:sRGB;color-interpolation-filters:linearRGB;solid-color:#000000;solid-opacity:1;fill:none;fill-opacity:1;fill-rule:evenodd;stroke:#000000;stroke-width:0.3125;stroke-linecap:butt;stroke-linejoin:miter;stroke-miterlimit:4;stroke-dasharray:none;stroke-dashoffset:0;stroke-opacity:1;marker:none;color-rendering:auto;image-rendering:auto;shape-rendering:auto;text-rendering:auto;enable-background:accumulate"
         transform="matrix(0,1,-1,0,0,0)" />
      <rect
         transform="matrix(0,1,-1,0,0,0)"
         style="color:#000000;clip-rule:nonzero;display:inline;overflow:visible;visibility:visible;opacity:1;isolation:auto;mix-blend-mode:normal;color-interpolation:sRGB;color-interpolation-filters:linearRGB;solid-color:#000000;solid-opacity:1;fill:none;fill-opacity:1;fill-rule:evenodd;stroke:#000000;stroke-width:0.3125;stroke-linecap:butt;stroke-linejoin:miter;stroke-miterlimit:4;stroke-dasharray:none;stroke-dashoffset:0;stroke-opacity:1;marker:none;color-rendering:auto;image-rendering:auto;shape-rendering:auto;text-rendering:auto;enable-background:accumulate"
         id="rect8340"
         width="9.5390997"
         height="44.640629"
         x="423.1525"
         y="-816.99731" />
      <rect
         transform="matrix(0,1,-1,0,0,0)"
         style="color:#000000;clip-rule:nonzero;display:inline;overflow:visible;visibility:visible;opacity:1;isolation:auto;mix-blend-mode:normal;color-interpolation:sRGB;color-interpolation-filters:linearRGB;solid-color:#000000;solid-opacity:1;fill:none;fill-opacity:1;fill-rule:evenodd;stroke:#000000;stroke-width:0.3125;stroke-linecap:butt;stroke-linejoin:miter;stroke-miterlimit:4;stroke-dasharray:none;stroke-dashoffset:0;stroke-opacity:1;marker:none;color-rendering:auto;image-rendering:auto;shape-rendering:auto;text-rendering:auto;enable-background:accumulate"
         id="rect8342"
         width="9.5390997"
         height="44.640629"
         x="740.13885"
         y="-816.99731" />
    </g>
    <path
       inkscape:connector-curvature="0"
       style="color:#000000;clip-rule:nonzero;display:inline;overflow:visible;visibility:visible;opacity:1;isolation:auto;mix-blend-mode:normal;color-interpolation:sRGB;color-interpolation-filters:linearRGB;solid-color:#000000;solid-opacity:1;fill:none;fill-opacity:1;fill-rule:evenodd;stroke:#000000;stroke-width:0.3125;stroke-linecap:butt;stroke-linejoin:miter;stroke-miterlimit:4;stroke-dasharray:none;stroke-dashoffset:0;stroke-opacity:1;marker:none;color-rendering:auto;image-rendering:auto;shape-rendering:auto;text-rendering:auto;enable-background:accumulate"
       d="m 617.61648,480.56265 -9.4161,0 0,-45.02344 -351.71088,0 0,45.02344 -9.416,0 0,16.65234 32.2969,0 0,-8.00976 9.541,0 0,8.00976 16.3008,0 0,11.33985 -16.3008,0 0,8.00976 -9.541,0 0,-8.00976 -32.2969,0 0,16.64843 9.416,0 0,45.02348 351.71088,0 0,-45.02348 9.4161,0 0,-16.64843 -32.2969,0 0,8.00976 -9.541,0 0,-8.00976 -16.3008,0 0,-11.33985 16.3008,0 0,-8.00976 9.541,0 0,8.00976 32.2969,0 0,-16.65234 z"
       id="path8358" />
    <path
       inkscape:connector-curvature="0"
       style="color:#000000;clip-rule:nonzero;display:inline;overflow:visible;visibility:visible;opacity:1;isolation:auto;mix-blend-mode:normal;color-interpolation:sRGB;color-interpolation-filters:linearRGB;solid-color:#000000;solid-opacity:1;fill:none;fill-opacity:1;fill-rule:evenodd;stroke:#000000;stroke-width:0.3125;stroke-linecap:butt;stroke-linejoin:miter;stroke-miterlimit:4;stroke-dasharray:none;stroke-dashoffset:0;stroke-opacity:1;marker:none;color-rendering:auto;image-rendering:auto;shape-rendering:auto;text-rendering:auto;enable-background:accumulate"
       d="m 983.72156,710.23251 0,-9.4161 45.02344,0 0,-351.71082 -45.02344,0 0,-9.41601 -16.65234,0 0,32.29691 8.00976,0 0,9.541 -8.00976,0 0,16.3008 -11.33985,0 0,-16.3008 -8.00976,0 0,-9.541 8.00976,0 0,-32.29691 -16.64842,0 0,9.41601 -45.02348,0 0,351.71082 45.02348,0 0,9.4161 16.64842,0 0,-32.2969 -8.00976,0 0,-9.541 8.00976,0 0,-16.3008 11.33985,0 0,16.3008 8.00976,0 0,9.541 -8.00976,0 0,32.2969 16.65234,0 z"
       id="path8358-0" />
    <g
       id="g9225"
       transform="translate(92.986603,882.33166)"
       inkscape:label="Hershey Text">
      <path
         id="path9227"
         transform="translate(5,0)"
         d="m 5,-12 -2,0 -2,1 -1,3 0,17 m -3,-14 7,0"
         style="fill:none;stroke:#000000"
         inkscape:connector-curvature="0" />
      <path
         id="path9229"
         transform="translate(21,0)"
         d="m -1,-5 -2,1 -2,2 -1,3 0,2 1,3 2,2 2,1 L 2,9 4,8 6,6 7,3 7,1 6,-2 4,-4 2,-5 -1,-5"
         style="fill:none;stroke:#000000"
         inkscape:connector-curvature="0" />
      <path
         id="path9231"
         transform="translate(38,0)"
         d="m -3,-5 0,14 m 0,-8 1,-3 2,-2 2,-1 3,0"
         style="fill:none;stroke:#000000"
         inkscape:connector-curvature="0" />
      <path
         id="path9233"
         transform="translate(52,0)"
         d=""
         style="fill:none;stroke:#000000"
         inkscape:connector-curvature="0" />
      <path
         id="path9235"
         transform="translate(70,0)"
         d="m -6,-7 0,-1 1,-2 1,-1 2,-1 4,0 2,1 1,1 1,2 0,2 L 5,-4 3,-1 -7,9 7,9"
         style="fill:none;stroke:#000000"
         inkscape:connector-curvature="0" />
      <path
         id="path9237"
         transform="translate(84,0)"
         d="M 0,4 -1,5 0,6 1,5 0,4"
         style="fill:none;stroke:#000000"
         inkscape:connector-curvature="0" />
      <path
         id="path9239"
         transform="translate(98,0)"
         d="M 7,-12 -3,9 m -4,-21 14,0"
         style="fill:none;stroke:#000000"
         inkscape:connector-curvature="0" />
      <path
         id="path9241"
         transform="translate(118,0)"
         d="m 5,-12 -10,0 -1,9 1,-1 3,-1 3,0 3,1 2,2 L 7,1 7,3 6,6 4,8 1,9 -2,9 -5,8 -6,7 -7,5"
         style="fill:none;stroke:#000000"
         inkscape:connector-curvature="0" />
      <path
         id="path9243"
         transform="translate(143,0)"
         d="m -11,-5 0,14 m 0,-10 3,-3 2,-1 3,0 2,1 1,3 0,10 m 0,-10 3,-3 2,-1 3,0 2,1 1,3 0,10"
         style="fill:none;stroke:#000000"
         inkscape:connector-curvature="0" />
      <path
         id="path9245"
         transform="translate(173,0)"
         d="m -11,-5 0,14 m 0,-10 3,-3 2,-1 3,0 2,1 1,3 0,10 m 0,-10 3,-3 2,-1 3,0 2,1 1,3 0,10"
         style="fill:none;stroke:#000000"
         inkscape:connector-curvature="0" />
      <path
         id="path9247"
         transform="translate(196,0)"
         d=""
         style="fill:none;stroke:#000000"
         inkscape:connector-curvature="0" />
      <path
         id="path9249"
         transform="translate(219,0)"
         d="m -11,-5 0,14 m 0,-10 3,-3 2,-1 3,0 2,1 1,3 0,10 m 0,-10 3,-3 2,-1 3,0 2,1 1,3 0,10"
         style="fill:none;stroke:#000000"
         inkscape:connector-curvature="0" />
      <path
         id="path9251"
         transform="translate(243,0)"
         d="M 6,-5 6,9 M 6,-2 4,-4 2,-5 l -3,0 -2,1 -2,2 -1,3 0,2 1,3 2,2 2,1 3,0 2,-1 2,-2"
         style="fill:none;stroke:#000000"
         inkscape:connector-curvature="0" />
      <path
         id="path9253"
         transform="translate(261,0)"
         d="m 6,-2 -1,-2 -3,-1 -3,0 -3,1 -1,2 1,2 2,1 L 3,2 5,3 6,5 6,6 5,8 2,9 -1,9 -4,8 -5,6"
         style="fill:none;stroke:#000000"
         inkscape:connector-curvature="0" />
      <path
         id="path9255"
         transform="translate(279,0)"
         d="m -1,-5 -2,1 -2,2 -1,3 0,2 1,3 2,2 2,1 L 2,9 4,8 6,6 7,3 7,1 6,-2 4,-4 2,-5 -1,-5"
         style="fill:none;stroke:#000000"
         inkscape:connector-curvature="0" />
      <path
         id="path9257"
         transform="translate(298,0)"
         d="m -5,-5 0,14 m 0,-10 3,-3 2,-1 3,0 2,1 1,3 0,10"
         style="fill:none;stroke:#000000"
         inkscape:connector-curvature="0" />
      <path
         id="path9259"
         transform="translate(312,0)"
         d="m -1,-12 1,1 1,-1 -1,-1 -1,1 m 1,7 0,14"
         style="fill:none;stroke:#000000"
         inkscape:connector-curvature="0" />
      <path
         id="path9261"
         transform="translate(321,0)"
         d="M 0,-12 0,5 1,8 3,9 5,9 m -8,-14 7,0"
         style="fill:none;stroke:#000000"
         inkscape:connector-curvature="0" />
      <path
         id="path9263"
         transform="translate(337,0)"
         d="M -6,1 6,1 6,-1 5,-3 4,-4 2,-5 l -3,0 -2,1 -2,2 -1,3 0,2 1,3 2,2 2,1 3,0 2,-1 2,-2"
         style="fill:none;stroke:#000000"
         inkscape:connector-curvature="0" />
    </g>
  </g>
</svg>
