<?xml version="1.0" encoding="UTF-8" standalone="no"?>
<!-- Created with Inkscape (http://www.inkscape.org/) -->

<svg
   xmlns:dc="http://purl.org/dc/elements/1.1/"
   xmlns:cc="http://creativecommons.org/ns#"
   xmlns:rdf="http://www.w3.org/1999/02/22-rdf-syntax-ns#"
   xmlns:svg="http://www.w3.org/2000/svg"
   xmlns="http://www.w3.org/2000/svg"
   xmlns:sodipodi="http://sodipodi.sourceforge.net/DTD/sodipodi-0.dtd"
   xmlns:inkscape="http://www.inkscape.org/namespaces/inkscape"
   width="13in"
   height="8.5in"
   viewBox="0 0 1170 765"
   id="svg2"
   version="1.1"
   inkscape:version="0.91 r13725"
   sodipodi:docname="base_plate_rear.svg">
  <sodipodi:namedview
     id="base"
     pagecolor="#ffffff"
     bordercolor="#666666"
     borderopacity="1.0"
     inkscape:pageopacity="0.0"
     inkscape:pageshadow="2"
     inkscape:zoom="0.7"
     inkscape:cx="831.66505"
     inkscape:cy="783.81892"
     inkscape:document-units="in"
     inkscape:current-layer="layer1"
     showgrid="false"
     units="in"
     inkscape:snap-bbox="false"
     inkscape:bbox-paths="true"
     inkscape:bbox-nodes="true"
     inkscape:snap-bbox-edge-midpoints="true"
     inkscape:snap-bbox-midpoints="true"
     inkscape:object-paths="true"
     inkscape:snap-intersection-paths="true"
     inkscape:object-nodes="true"
     inkscape:snap-smooth-nodes="true"
     inkscape:snap-midpoints="true"
     inkscape:snap-grids="false"
     inkscape:snap-object-midpoints="true"
     inkscape:snap-center="true"
     inkscape:snap-text-baseline="true"
     inkscape:window-width="1920"
     inkscape:window-height="1137"
     inkscape:window-x="-8"
     inkscape:window-y="-8"
     inkscape:window-maximized="1" />
  <defs
     id="defs4" />
  <metadata
     id="metadata7">
    <rdf:RDF>
      <cc:Work
         rdf:about="">
        <dc:format>image/svg+xml</dc:format>
        <dc:type
           rdf:resource="http://purl.org/dc/dcmitype/StillImage" />
        <dc:title />
      </cc:Work>
    </rdf:RDF>
  </metadata>
  <g
     inkscape:label="Layer 1"
     inkscape:groupmode="layer"
     id="layer1"
     transform="translate(0,-287.3622)">
    <g
       id="g8572">
      <g
         id="g6602">
        <rect
           style="fill:none;stroke:#000000;stroke-width:0.3125;stroke-miterlimit:4;stroke-dasharray:none"
           id="rect3338"
           width="32.759998"
           height="21.51"
           x="491.39481"
           y="494.66187"
           ry="10.755" />
        <rect
           style="fill:none;stroke:#000000;stroke-width:0.3125;stroke-miterlimit:4;stroke-dasharray:none"
           id="rect3338-6"
           width="32.759998"
           height="21.51"
           x="619.11481"
           y="494.66187"
           ry="10.327868" />
        <rect
           style="fill:none;stroke:#000000;stroke-width:0.3125;stroke-miterlimit:4;stroke-dasharray:none"
           id="rect3338-8"
           width="32.759998"
           height="21.51"
           x="619.11481"
           y="681.97314"
           ry="10.755" />
        <rect
           style="fill:none;stroke:#000000;stroke-width:0.3125;stroke-miterlimit:4;stroke-dasharray:none"
           id="rect3338-5"
           width="32.759998"
           height="21.51"
           x="491.39481"
           y="681.97314"
           ry="10.755" />
        <path
           style="fill:none;stroke:#000000;stroke-width:0.3125;stroke-miterlimit:4;stroke-dasharray:none"
           d="m 402.88478,492.68191 c -12.19076,0 -22,9.84048 -22,22.03125 l 0,22.96875 0,122.78125 0,23 c 0,12.19077 9.80924,22 22,22 12.19077,0 22,-9.80923 22,-22 l 0,-23 293.5,0 0,23 c 0,12.19077 9.80923,22 22,22 12.19078,0 22,-9.80923 22,-22 l 0,-23 0,-122.78125 0,-22.96875 c 0,-12.19077 -9.80922,-22.03125 -22,-22.03125 -12.19077,0 -22,9.84048 -22,22.03125 l 0,22.96875 -293.5,0 0,-22.96875 c 0,-12.19077 -9.80923,-22.03125 -22,-22.03125 z"
           id="rect3312"
           inkscape:connector-curvature="0" />
      </g>
      <g
         id="g6583">
        <circle
           style="fill:none;stroke:#000000;stroke-width:0.3125;stroke-miterlimit:4;stroke-dasharray:none"
           id="path5350"
           cx="490.09482"
           cy="769.33539"
           r="10.64375" />
        <circle
           style="fill:none;stroke:#000000;stroke-width:0.3125;stroke-miterlimit:4;stroke-dasharray:none"
           id="path5350-7"
           cx="653.17487"
           cy="769.33539"
           r="10.64375" />
        <circle
           style="fill:none;stroke:#000000;stroke-width:0.3125;stroke-miterlimit:4;stroke-dasharray:none"
           id="path5350-77"
           cx="490.09482"
           cy="893.98541"
           r="10.64375" />
        <circle
           style="fill:none;stroke:#000000;stroke-width:0.3125;stroke-miterlimit:4;stroke-dasharray:none"
           id="path5350-2"
           cx="653.17487"
           cy="893.98541"
           r="10.64375" />
      </g>
      <path
         id="path2983"
         d="m 191.75248,362.73818 0,22.32031 -9.53907,0 0,157.7168 c 0,11.5084 -9.04105,20.92389 -20.40625,21.5 l -82.3125,0 -5.875,6.375 c 63.60384,152.30491 195.02073,269.23427 356.52539,313.02539 11.2184,38.4063 46.58245,66.31055 88.70899,66.31055 l 105.56055,0 c 42.1236,0 77.48604,-27.90054 88.70703,-66.30274 C 874.75952,839.86714 1006.2561,722.792 1069.8072,570.30654 l -6.0313,-6.03125 -79.65619,0 c -11.5085,0 -20.92395,-9.04105 -21.50005,-20.40625 l 0,-158.81055 -9.53906,0 0,-22.32031 -369.57031,0 a 11.09375,11.09375 0 0 1 -11.09375,11.09375 11.09375,11.09375 0 0 1 -11.09375,-11.09375 l -369.57031,0 z"
         style="fill:none;stroke:#000000;stroke-width:0.3125;stroke-miterlimit:4;stroke-dasharray:none"
         inkscape:connector-curvature="0" />
      <g
         id="g8566">
        <circle
           style="color:#000000;clip-rule:nonzero;display:inline;overflow:visible;visibility:visible;opacity:1;isolation:auto;mix-blend-mode:normal;color-interpolation:sRGB;color-interpolation-filters:linearRGB;solid-color:#000000;solid-opacity:1;fill:none;fill-opacity:1;fill-rule:nonzero;stroke:#ff0000;stroke-width:0.31249997;stroke-linecap:butt;stroke-linejoin:miter;stroke-miterlimit:4;stroke-dasharray:none;stroke-dashoffset:0;stroke-opacity:1;color-rendering:auto;image-rendering:auto;shape-rendering:auto;text-rendering:auto;enable-background:accumulate"
           id="path8494-1"
           cx="310.40775"
           cy="724.2157"
           r="6.8187499" />
        <circle
           style="color:#000000;clip-rule:nonzero;display:inline;overflow:visible;visibility:visible;opacity:1;isolation:auto;mix-blend-mode:normal;color-interpolation:sRGB;color-interpolation-filters:linearRGB;solid-color:#000000;solid-opacity:1;fill:none;fill-opacity:1;fill-rule:nonzero;stroke:#ff0000;stroke-width:0.31249997;stroke-linecap:butt;stroke-linejoin:miter;stroke-miterlimit:4;stroke-dasharray:none;stroke-dashoffset:0;stroke-opacity:1;color-rendering:auto;image-rendering:auto;shape-rendering:auto;text-rendering:auto;enable-background:accumulate"
           id="path8494-9"
           cx="310.40775"
           cy="491.17667"
           r="6.8187499" />
        <circle
           style="color:#000000;clip-rule:nonzero;display:inline;overflow:visible;visibility:visible;opacity:1;isolation:auto;mix-blend-mode:normal;color-interpolation:sRGB;color-interpolation-filters:linearRGB;solid-color:#000000;solid-opacity:1;fill:none;fill-opacity:1;fill-rule:nonzero;stroke:#ff0000;stroke-width:0.31249997;stroke-linecap:butt;stroke-linejoin:miter;stroke-miterlimit:4;stroke-dasharray:none;stroke-dashoffset:0;stroke-opacity:1;color-rendering:auto;image-rendering:auto;shape-rendering:auto;text-rendering:auto;enable-background:accumulate"
           id="path8494-73"
           cx="834.42535"
           cy="724.2157"
           r="6.8187499" />
        <circle
           style="color:#000000;clip-rule:nonzero;display:inline;overflow:visible;visibility:visible;opacity:1;isolation:auto;mix-blend-mode:normal;color-interpolation:sRGB;color-interpolation-filters:linearRGB;solid-color:#000000;solid-opacity:1;fill:none;fill-opacity:1;fill-rule:nonzero;stroke:#ff0000;stroke-width:0.31249997;stroke-linecap:butt;stroke-linejoin:miter;stroke-miterlimit:4;stroke-dasharray:none;stroke-dashoffset:0;stroke-opacity:1;color-rendering:auto;image-rendering:auto;shape-rendering:auto;text-rendering:auto;enable-background:accumulate"
           id="path8494-2"
           cx="834.24567"
           cy="491.35635"
           r="6.8187499" />
      </g>
      <g
         id="g8559">
        <circle
           style="color:#000000;clip-rule:nonzero;display:inline;overflow:visible;visibility:visible;opacity:1;isolation:auto;mix-blend-mode:normal;color-interpolation:sRGB;color-interpolation-filters:linearRGB;solid-color:#000000;solid-opacity:1;fill:none;fill-opacity:1;fill-rule:nonzero;stroke:#ff0000;stroke-width:0.31249997;stroke-linecap:butt;stroke-linejoin:miter;stroke-miterlimit:4;stroke-dasharray:none;stroke-dashoffset:0;stroke-opacity:1;color-rendering:auto;image-rendering:auto;shape-rendering:auto;text-rendering:auto;enable-background:accumulate"
           id="path8494-99"
           cx="215.4722"
           cy="441.84659"
           r="6.8187499" />
        <circle
           style="color:#000000;clip-rule:nonzero;display:inline;overflow:visible;visibility:visible;opacity:1;isolation:auto;mix-blend-mode:normal;color-interpolation:sRGB;color-interpolation-filters:linearRGB;solid-color:#000000;solid-opacity:1;fill:none;fill-opacity:1;fill-rule:nonzero;stroke:#ff0000;stroke-width:0.31249997;stroke-linecap:butt;stroke-linejoin:miter;stroke-miterlimit:4;stroke-dasharray:none;stroke-dashoffset:0;stroke-opacity:1;color-rendering:auto;image-rendering:auto;shape-rendering:auto;text-rendering:auto;enable-background:accumulate"
           id="path8494-7"
           cx="271.03351"
           cy="424.4014"
           r="6.8187499" />
        <circle
           style="color:#000000;clip-rule:nonzero;display:inline;overflow:visible;visibility:visible;opacity:1;isolation:auto;mix-blend-mode:normal;color-interpolation:sRGB;color-interpolation-filters:linearRGB;solid-color:#000000;solid-opacity:1;fill:none;fill-opacity:1;fill-rule:nonzero;stroke:#ff0000;stroke-width:0.31249997;stroke-linecap:butt;stroke-linejoin:miter;stroke-miterlimit:4;stroke-dasharray:none;stroke-dashoffset:0;stroke-opacity:1;color-rendering:auto;image-rendering:auto;shape-rendering:auto;text-rendering:auto;enable-background:accumulate"
           id="path8494-0"
           cx="572.41614"
           cy="424.4014"
           r="6.8187499" />
        <circle
           style="color:#000000;clip-rule:nonzero;display:inline;overflow:visible;visibility:visible;opacity:1;isolation:auto;mix-blend-mode:normal;color-interpolation:sRGB;color-interpolation-filters:linearRGB;solid-color:#000000;solid-opacity:1;fill:none;fill-opacity:1;fill-rule:nonzero;stroke:#ff0000;stroke-width:0.31249997;stroke-linecap:butt;stroke-linejoin:miter;stroke-miterlimit:4;stroke-dasharray:none;stroke-dashoffset:0;stroke-opacity:1;color-rendering:auto;image-rendering:auto;shape-rendering:auto;text-rendering:auto;enable-background:accumulate"
           id="path8494-00"
           cx="873.76849"
           cy="424.4014"
           r="6.8187499" />
        <circle
           style="color:#000000;clip-rule:nonzero;display:inline;overflow:visible;visibility:visible;opacity:1;isolation:auto;mix-blend-mode:normal;color-interpolation:sRGB;color-interpolation-filters:linearRGB;solid-color:#000000;solid-opacity:1;fill:none;fill-opacity:1;fill-rule:nonzero;stroke:#ff0000;stroke-width:0.31249997;stroke-linecap:butt;stroke-linejoin:miter;stroke-miterlimit:4;stroke-dasharray:none;stroke-dashoffset:0;stroke-opacity:1;color-rendering:auto;image-rendering:auto;shape-rendering:auto;text-rendering:auto;enable-background:accumulate"
           id="path8494-6"
           cx="929.35114"
           cy="441.84659"
           r="6.8187499" />
      </g>
    </g>
    <g
       id="g4255"
       transform="translate(118.88062,599.707)"
       inkscape:label="Hershey Text"
       style="stroke:#ff0000">
      <path
         id="path4257"
         transform="translate(9,0)"
         d="m -4,-12 0,21 m 1,-21 0,21 m -4,-21 7,0 M -7,9 8,9 8,3 7,9"
         style="fill:none;stroke:#ff0000"
         inkscape:connector-curvature="0" />
    </g>
    <g
       inkscape:label="Hershey Text"
       transform="translate(1003.64,599.707)"
       id="g4323"
       style="stroke:#ff0000">
      <path
         inkscape:connector-curvature="0"
         style="fill:none;stroke:#ff0000"
         d="m -6,-12 0,21 m 1,-21 0,21 m -4,-21 12,0 3,1 1,1 1,2 0,2 -1,2 -1,1 -3,1 -8,0 m 8,-10 2,1 1,1 1,2 0,2 -1,2 -1,1 -2,1 M -9,9 -2,9 M 0,-2 2,-1 3,0 6,7 7,8 8,8 9,7 M 2,-1 3,1 5,8 6,9 8,9 9,7 9,6"
         transform="translate(11,0)"
         id="path4325" />
    </g>
    <g
       style="stroke-width:0.35876736;stroke-miterlimit:4;stroke-dasharray:none"
       id="g5318-5-2"
       transform="matrix(0.65286836,0,0,0.65281864,102.40209,479.91194)">
      <path
         inkscape:connector-curvature="0"
         id="path5643-7-3-0-5"
         style="fill:none;stroke:#ff0000;stroke-width:0.47867522;stroke-miterlimit:4;stroke-dasharray:none"
         d="m 238.05747,235.66946 c 0,0 1.06707,1.08858 1.06707,1.08858 0,0 0.56193,1.07438 0.56193,1.07438 0,0 0.0671,1.76648 0.0671,1.76648 0,0 -0.46716,1.21804 -0.46716,1.21804 0,0 -0.98131,1.12897 -0.98131,1.12897 0,0 -1.48516,0.57938 -1.48516,0.57938 0,0 -0.9945,0.0149 -0.9945,0.0149 0,0 -1.49835,-0.5346 -1.49835,-0.5346 0,0 -1.00763,-1.09913 -1.00763,-1.09913 0,0 -0.5224,-0.99412 -0.5224,-0.99412 0,0 -0.0572,-1.5579 -0.0572,-1.5579 0,0 0.43045,-1.14895 0.43045,-1.14895 0,0 0.92606,-1.11892 0.92606,-1.11892 m 5.44654,-0.57355 c 0,0 -10.39786,1.09496 -10.39786,1.09496 m 9.9401,-5.7152 c 0,0 -6.88786,1.14292 -6.88786,1.14292 m 5.88751,-7.45663 c 0,0 -4.84747,1.25128 -4.84747,1.25128 0,0 -1.36902,0.82671 -1.36902,0.82671 0,0 -0.29227,1.20295 -0.29227,1.20295 0,0 0.25167,1.53433 0.25167,1.53433 0,0 0.64572,0.90637 0.64572,0.90637 0,0 1.6918,1.40844 1.6918,1.40844 m 1.87125,-15.54967 c 0,0 -0.78988,-0.87318 -0.78988,-0.87318 0,0 -1.28459,-0.736 -1.28459,-0.736 0,0 -1.57056,0.0619 -1.57056,0.0619 0,0 -0.93266,0.38945 -0.93266,0.38945 0,0 -1.22749,1.10648 -1.22749,1.10648 0,0 -0.63216,1.35198 -0.63216,1.35198 0,0 -0.15134,1.23548 -0.15134,1.23548 0,0 0.41837,1.48964 0.41837,1.48964 0,0 0.73584,0.80871 0.73584,0.80871 0,0 1.22707,0.76462 1.22707,0.76462 0,0 1.56431,0.0545 1.56431,0.0545 0,0 0.96338,-0.27874 0.96338,-0.27874 0,0 1.29874,-1.00347 1.29874,-1.00347 0,0 0.68613,-1.37846 0.68613,-1.37846 0,0 0.1691,-1.31064 0.1691,-1.31064 0,0 -0.47426,-1.68226 -0.47426,-1.68226 m -5.93392,-7.73474 c 0,0 1.56188,-0.19669 1.56188,-0.19669 0,0 1.34053,0.61708 1.34053,0.61708 0,0 0.84692,0.80232 0.84692,0.80232 0,0 0.59731,1.63029 0.59731,1.63029 m -1.63588,-4.25867 c 0,0 -6.32513,3.27997 -6.32513,3.27997 m 0.88643,-7.83105 c 0,0 1.18547,2.45147 1.18547,2.45147 m 3.52614,-2.07685 c 0,0 0.65277,-1.01299 0.65277,-1.01299 0,0 0.33345,-1.65054 0.33345,-1.65054 0,0 -0.0444,-1.24626 -0.0444,-1.24626 0,0 -1.17036,-2.24444 -1.17036,-2.24444 0,0 -0.94389,-0.65038 -0.94389,-0.65038 0,0 -1.44058,-0.47308 -1.44058,-0.47308 0,0 -1.10259,0.14937 -1.10259,0.14937 0,0 -1.51844,0.45685 -1.51844,0.45685 0,0 -2.07896,1.53774 -2.07896,1.53774 0,0 -0.97641,1.38851 -0.97641,1.38851 0,0 -0.5606,1.08081 -0.5606,1.08081 0,0 -0.34784,1.48219 -0.34784,1.48219 0,0 0.0991,1.24219 0.0991,1.24219 0,0 0.90799,1.74094 0.90799,1.74094 0,0 0.91415,0.7024 0.91415,0.7024 0,0 1.31775,0.37783 1.31775,0.37783 0,0 1.11035,-0.0255 1.11035,-0.0255 0,0 1.32235,-0.77884 1.32235,-0.77884 m -9.33039,-18.05141 c 0,0 0.41559,-1.16111 0.41559,-1.16111 0,0 -0.68767,-1.66276 -0.68767,-1.66276 0,0 -1.08031,-1.26775 -1.08031,-1.26775 0,0 -1.44798,-0.84349 -1.44798,-0.84349 0,0 -1.04816,0.4137 -1.04816,0.4137 0,0 -0.34083,1.19168 -0.34083,1.19168 0,0 0.35795,1.19129 0.35795,1.19129 0,0 1.34949,2.39782 1.34949,2.39782 0,0 0.29475,1.18568 0.29475,1.18568 0,0 -0.41562,1.16111 -0.41562,1.16111 0,0 -0.37185,0.37233 -0.37185,0.37233 0,0 -1.07171,0.32813 -1.07171,0.32813 0,0 -1.31912,-0.77909 -1.31912,-0.77909 0,0 -0.96556,-1.13226 -0.96556,-1.13226 0,0 -0.63631,-1.51414 -0.63631,-1.51414 0,0 0.34081,-1.1917 0.34081,-1.1917 m 0.55268,-5.55703 c 0,0 -0.0793,-1.57819 -0.0793,-1.57819 0,0 -0.47526,-1.20439 -0.47526,-1.20439 0,0 -1.19319,-1.13025 -1.19319,-1.13025 0,0 -1.08143,-0.26257 -1.08143,-0.26257 0,0 -1.43016,0.1517 -1.43016,0.1517 0,0 -1.30042,0.99489 -1.30042,0.99489 0,0 -0.60573,0.88942 -0.60573,0.88942 0,0 -0.51675,1.67339 -0.51675,1.67339 0,0 0.10831,1.52917 0.10831,1.52917 0,0 0.45732,1.13564 0.45732,1.13564 0,0 1.06659,1.01242 1.06659,1.01242 0,0 1.0109,0.2441 1.0109,0.2441 0,0 1.39922,-0.0997 1.39922,-0.0997 m -4.01012,-11.4655 c 0,0 -3.97601,6.44355 -3.97601,6.44355 m 5.55837,-9.98347 c 0,0 0.12162,0.77839 0.12162,0.77839 0,0 0.68962,-0.14208 0.68962,-0.14208 0,0 -0.12161,-0.77843 -0.12161,-0.77843 0,0 -0.68963,0.14212 -0.68963,0.14212 m -7.6626,-0.84544 c 0,0 3.08235,2.11821 3.08235,2.11821 m 0.0391,-4.59184 c 0,0 -4.32834,8.18752 -4.32834,8.18752 0,0 -0.40495,1.6872 -0.40495,1.6872 0,0 0.57219,1.06745 0.57219,1.06745 0,0 0.76087,0.54349 0.76087,0.54349 m -5.60539,-12.50149 c 0,0 -1.10595,0.0281 -1.10595,0.0281 0,0 -1.36564,0.53732 -1.36564,0.53732 0,0 -1.05978,1.30837 -1.05978,1.30837 0,0 -0.4058,1.02378 -0.4058,1.02378 0,0 -0.15772,1.76298 -0.15772,1.76298 0,0 0.42688,1.44409 0.42688,1.44409 0,0 0.67896,0.98468 0.67896,0.98468 0,0 1.25343,0.68953 1.25343,0.68953 0,0 1.10627,0.002 1.10627,0.002 0,0 1.27557,-0.50918 1.27557,-0.50918 0,0 1.13879,-1.22114 1.13879,-1.22114 0,0 0.46864,-0.98912 0.46864,-0.98912 0,0 0.26715,-1.74607 0.26715,-1.74607 0,0 -0.46244,-1.54164 -0.46244,-1.54164 0,0 -0.65834,-1.0024 -0.65834,-1.0024 0,0 -1.40002,-0.77049 -1.40002,-0.77049 M 183.10593,160.75 c 0,0 1.2997,-0.71127 1.2997,-0.71127 0,0 1.09543,-0.17405 1.09543,-0.17405 0,0 1.47011,0.58252 1.47011,0.58252 0,0 0.7579,0.9085 0.7579,0.9085 0,0 0.61911,1.47165 0.61911,1.47165 0,0 -0.084,1.76931 -0.084,1.76931 0,0 -0.36274,1.04415 -0.36274,1.04415 0,0 -1.00412,1.3631 -1.00412,1.3631 0,0 -1.21322,0.67259 -1.21322,0.67259 0,0 -1.09871,0.14492 -1.09871,0.14492 0,0 -1.31543,-0.5212 -1.31543,-0.5212 0,0 -0.77673,-0.88815 -0.77673,-0.88815 0,0 -0.57297,-1.38042 -0.57297,-1.38042 m 2.66785,-9.63359 c 0,0 -3.1125,11.23916 -3.1125,11.23916 m -5.38189,-9.72093 c 0,0 -1.06952,0.31857 -1.06952,0.31857 0,0 -1.21523,0.87185 -1.21523,0.87185 0,0 -0.75903,1.5515 -0.75903,1.5515 0,0 -0.1822,1.10241 -0.1822,1.10241 0,0 0.21235,1.75567 0.21235,1.75567 0,0 0.71185,1.30172 0.71185,1.30172 0,0 0.86416,0.77865 0.86416,0.77865 0,0 1.35892,0.34899 1.35892,0.34899 0,0 1.00151,-0.30987 1.00151,-0.30987 0,0 1.20736,-0.80356 1.20736,-0.80356 0,0 0.85492,-1.48681 0.85492,-1.48681 0,0 0.25127,-1.085 0.25127,-1.085 0,0 -0.10121,-1.7682 -0.10121,-1.7682 0,0 -0.70485,-1.36641 -0.70485,-1.36641 0,0 -0.91027,-0.81993 -0.91027,-0.81993 0,0 -1.52003,-0.38958 -1.52003,-0.38958 m -9.24709,0.0206 c 0,0 2.72675,6.60583 2.72675,6.60583 m -5.9316,-12.53961 c 0,0 4.74669,0.48815 4.74669,0.48815 0,0 1.56108,0.79065 1.56108,0.79065 0,0 0.42169,0.63133 0.42169,0.63133 0,0 0.35397,1.18679 0.35397,1.18679 0,0 -0.13551,1.11092 -0.13551,1.11092 0,0 -0.62498,1.03501 -0.62498,1.03501 0,0 -0.55721,0.47956 -0.55721,0.47956 0,0 -1.57903,0.33682 -1.57903,0.33682 0,0 -4.5103,-0.46437 -4.5103,-0.46437 m 0.3236,-5.59486 c 0,0 -0.67959,11.74928 -0.67959,11.74928 m -12.12932,-11.67017 c 0,0 0.81583,11.73828 0.81583,11.73828 m -4.44247,-5.69675 c 0,0 -1.10519,-0.9726 -1.10519,-0.9726 0,0 -1.11647,-0.38399 -1.11647,-0.38399 0,0 -1.54038,0.27071 -1.54038,0.27071 0,0 -0.88749,0.74452 -0.88749,0.74452 0,0 -0.84102,1.31343 -0.84102,1.31343 0,0 -0.19224,1.75855 -0.19224,1.75855 0,0 0.19482,1.09965 0.19482,1.09965 0,0 0.77672,1.54037 0.77672,1.54037 0,0 1.09146,0.91526 1.09146,0.91526 0,0 1.05914,0.36 1.05914,0.36 0,0 1.37709,-0.24069 1.37709,-0.24069 0,0 0.82752,-0.70285 0.82752,-0.70285 0,0 0.85545,-1.25234 0.85545,-1.25234 m -0.6867,-6.11871 c 0,0 0.87402,7.78742 0.87402,7.78742 m -15.32184,-1.97846 c 0,0 1.01835,-2.10212 1.01835,-2.10212 0,0 0.88008,-0.86774 0.88008,-0.86774 0,0 1.50367,-0.46249 1.50367,-0.46249 0,0 1.07917,0.27427 1.07917,0.27427 0,0 0.84053,1.49715 0.84053,1.49715 0,0 1.20391,5.44004 1.20391,5.44004 m -7.14259,-5.91126 c 0,0 2.1591,7.46252 2.1591,7.46252 m -9.33342,-4.51198 c 0,0 -0.7802,0.98638 -0.7802,0.98638 0,0 -0.51075,1.47213 -0.51075,1.47213 0,0 0.13898,1.777 0.13898,1.777 0,0 0.4171,1.01801 0.4171,1.01801 0,0 1.02722,1.31994 1.02722,1.31994 0,0 1.30235,0.58535 1.30235,0.58535 0,0 1.02544,0.11361 1.02544,0.11361 0,0 1.37327,-0.62893 1.37327,-0.62893 0,0 0.66426,-0.88879 0.66426,-0.88879 0,0 0.57139,-1.44348 0.57139,-1.44348 0,0 -0.0806,-1.75512 -0.0806,-1.75512 0,0 -0.33061,-1.05759 -0.33061,-1.05759 0,0 -0.9991,-1.3815 -0.9991,-1.3815 0,0 -1.27652,-0.65358 -1.27652,-0.65358 0,0 -1.16898,-0.0924 -1.16898,-0.0924 0,0 -1.37326,0.62895 -1.37326,0.62895 m -4.49081,4.16521 c 0,0 -0.93788,-0.72662 -0.93788,-0.72662 0,0 -1.54452,0.27369 -1.54452,0.27369 0,0 -1.36873,0.83877 -1.36873,0.83877 0,0 -1.10557,1.3505 -1.10557,1.3505 0,0 0.0725,1.24939 0.0725,1.24939 0,0 0.92691,0.6897 0.92691,0.6897 0,0 1.11161,-0.0737 1.11161,-0.0737 0,0 2.40785,-0.82973 2.40785,-0.82973 0,0 1.10616,-0.0167 1.10616,-0.0167 0,0 0.86512,0.76811 0.86512,0.76811 0,0 0.21907,0.50337 0.21907,0.50337 0,0 0.0631,1.21571 0.0631,1.21571 0,0 -1.08561,1.26855 -1.08561,1.26855 0,0 -1.22505,0.75207 -1.22505,0.75207 0,0 -1.46341,0.29053 -1.46341,0.29053 0,0 -0.92691,-0.68968 -0.92691,-0.68968 m -6.26185,1.1798 c 0,0 -0.42955,-1.7044 -0.42955,-1.7044 0,0 0.2586,-1.5536 0.2586,-1.5536 0,0 0.61213,-1.11826 0.61213,-1.11826 0,0 1.31528,-0.94132 1.31528,-0.94132 m -3.43295,2.53478 c 0,0 3.91188,6.49326 3.91188,6.49326 m -9.64174,2.83632 c 0,0 4.59811,-4.24877 4.59811,-4.24877 0,0 -0.5968,-0.89698 -0.5968,-0.89698 0,0 -1.03349,-0.52623 -1.03349,-0.52623 0,0 -0.69586,-0.0958 -0.69586,-0.0958 0,0 -1.08403,0.24888 -1.08403,0.24888 0,0 -1.20689,1.11134 -1.20689,1.11134 0,0 -0.48986,1.19468 -0.48986,1.19468 0,0 -0.0951,1.5771 -0.0951,1.5771 0,0 0.60396,1.63579 0.60396,1.63579 0,0 0.6515,0.8473 0.6515,0.8473 0,0 1.35059,0.90606 1.35059,0.90606 0,0 1.39814,0.11746 1.39814,0.11746 0,0 1.01597,-0.22773 1.01597,-0.22773 0,0 1.0793,-0.99531 1.0793,-0.99531 0,0 0.46868,-1.12982 0.46868,-1.12982 0,0 0.12602,-1.5241 0.12602,-1.5241 m -17.956259,5.16786 c 0,0 3.344414,-4.08013 3.344414,-4.08013 0,0 1.399815,-0.78525 1.399815,-0.78525 0,0 0.803011,-0.0989 0.803011,-0.0989 0,0 1.043934,0.42714 1.043934,0.42714 0,0 1.029545,1.21733 1.029545,1.21733 0,0 0.328734,1.19601 0.328734,1.19601 0,0 -0.04058,0.82665 -0.04058,0.82665 0,0 -0.696523,1.5782 -0.696523,1.5782 0,0 -3.077073,3.75624 -3.077073,3.75624 m -4.135275,-4.03727 c 0,0 7.894655,7.70752 7.894655,7.70752 m -11.083493,6.44475 c 0,0 -1.104217,-0.13323 -1.104217,-0.13323 0,0 -1.233044,1.20193 -1.233044,1.20193 0,0 -0.787893,1.52114 -0.787893,1.52114 0,0 -0.323683,1.80397 -0.323683,1.80397 0,0 0.642177,1.02153 0.642177,1.02153 0,0 1.109961,0.0402 1.109961,0.0402 0,0 0.919012,-0.71577 0.919012,-0.71577 0,0 1.676165,-2.1203 1.676165,-2.1203 0,0 0.932411,-0.64253 0.932411,-0.64253 0,0 1.104217,0.13326 1.104217,0.13326 0,0 0.41934,0.30146 0.41934,0.30146 0,0 0.572955,1.07257 0.572955,1.07257 0,0 -0.303774,1.63996 -0.303774,1.63996 0,0 -0.700394,1.35303 -0.700394,1.35303 0,0 -1.115603,1.10176 -1.115603,1.10176 0,0 -1.109962,-0.0402 -1.109962,-0.0402 m -5.103529,1.44438 c 0,0 -1.322088,0.52603 -1.322088,0.52603 0,0 -0.884522,0.86184 -0.884522,0.86184 0,0 -0.618848,1.61986 -0.618848,1.61986 0,0 0.08193,1.24381 0.08193,1.24381 0,0 0.543256,1.51294 0.543256,1.51294 0,0 1.215669,1.12285 1.215669,1.12285 0,0 0.928541,0.40193 0.928541,0.40193 0,0 1.569849,0.0828 1.569849,0.0828 0,0 1.257258,-0.54938 1.257258,-0.54938 0,0 0.837154,-0.81527 0.837154,-0.81527 0,0 0.54907,-1.43632 0.54907,-1.43632 0,0 -0.0876,-1.16175 -0.0876,-1.16175 0,0 -0.475145,-1.48716 -0.475145,-1.48716 m -4.942452,-2.64306 c 0,0 6.290368,3.36388 6.290368,3.36388 m -13.222062,5.67831 c 0,0 9.928975,3.64878 9.928975,3.64878 m -11.142076,1.00303 c 0,0 10.083561,3.06282 10.083561,3.06282 m -6.204986,2.83378 c 0,0 -1.175608,0.93835 -1.175608,0.93835 0,0 -0.670157,0.99237 -0.670157,0.99237 0,0 -0.25283,1.74413 -0.25283,1.74413 0,0 0.335712,1.27094 0.335712,1.27094 0,0 0.856195,1.25172 0.856195,1.25172 0,0 1.413511,0.78044 1.413511,0.78044 0,0 0.989119,0.1177 0.989119,0.1177 0,0 1.541313,-0.30924 1.541313,-0.30924 0,0 1.115708,-0.95726 1.115708,-0.95726 0,0 0.623638,-0.91825 0.623638,-0.91825 0,0 0.221517,-1.54003 0.221517,-1.54003 0,0 -0.307523,-1.19811 -0.307523,-1.19811 0,0 -0.800304,-1.23412 -0.800304,-1.23412 m -5.349105,-1.29061 c 0,0 6.807918,1.64258 6.807918,1.64258 m -11.858333,16.64336 c 0,0 0.08767,-3.89815 0.08767,-3.89815 0,0 0.561065,-1.84205 0.561065,-1.84205 0,0 1.044559,-1.05438 1.044559,-1.05438 0,0 1.034821,-0.6239 1.034821,-0.6239 0,0 1.526039,-0.42331 1.526039,-0.42331 0,0 2.47876,0.22009 2.47876,0.22009 0,0 1.448538,0.68741 1.448538,0.68741 0,0 0.961121,0.57668 0.961121,0.57668 0,0 0.941889,1.17092 0.941889,1.17092 0,0 0.442912,1.58697 0.442912,1.58697 0,0 -0.08767,3.89816 -0.08767,3.89816 m -10.439703,-0.29844 c 0,0 10.439703,0.29844 10.439703,0.29844" />
      <path
         style="fill:none;stroke:#ff0000;stroke-width:0.47867522;stroke-miterlimit:4;stroke-dasharray:none"
         d="m 165.42718,285.1827 c 2.94153,1.78189 9.90105,3.5627 12.54925,4.08277 7.9107,1.89888 -0.37228,-7.01868 1.86823,-11.09703 0.42076,-4.91165 1.30794,-9.43071 3.40862,-13.88442 3.5352,-4.82069 8.92191,-7.58372 13.89626,-10.58326 2.44871,-1.32108 5.26213,-3.17462 7.97542,-4.49867 2.82903,-2.01467 6.77327,-3.01593 8.59078,-6.12741 -2.47222,-3.75681 1.7806,-7.5132 0.42536,-11.41032 -1.10809,-3.45546 -3.11672,-5.93705 -4.17054,-9.15202 -1.17325,-5.44947 -0.0185,-10.94853 0.1001,-16.43176 -3.75895,0.0535 -0.69946,-0.22288 -2.46321,-0.32429 -3.97222,-0.29502 -7.38236,-2.58686 -11.16452,-3.73454 -4.03691,1.90327 -8.37369,2.20405 -12.80522,1.42744 -4.46696,0.0387 -7.98186,-0.71809 -11.49997,-1.0751 -5.11754,-1.10051 -10.97365,-2.2908 -14.32583,-6.67453 -0.54178,-4.58825 -0.58179,-9.59026 -0.54908,-14.68472 0.0432,-4.23215 -0.10163,-4.34072 -0.36361,-6.30804 -1.09573,-0.96354 -3.83035,-0.13252 -5.54222,-0.42141 -6.9854,-0.0239 -13.97078,-0.0479 -20.95618,-0.0718 -0.0293,16.43471 -0.0587,32.86942 -0.088,49.30414 -10.55574,0.14295 -21.1559,-0.21581 -31.677492,0.35497 3.216302,4.29455 7.232532,7.65234 11.065862,11.29277 0.7887,1.31007 3.95034,3.5727 4.30107,6.0445 1.77495,2.87216 1.73582,6.42512 4.28113,8.06514 3.74662,2.74312 7.64183,5.17143 11.52628,7.73607 1.3848,0.53212 1.72477,-1.94031 2.24317,-2.67614"
         id="path5397-1-4-1-96-07-7"
         inkscape:connector-curvature="0"
         sodipodi:nodetypes="cccccccccccccccccccccccccc" />
      <path
         sodipodi:nodetypes="cscscscscsccscccscccscccsscssscssscsscscscssccscscscssscccsssscccssccscscscsccccscscccscscsscsscssscscscccscscssccsscccsssscssscscccccsscscsccccssccsscscssscccccscsccccsccsscccscc"
         inkscape:connector-curvature="0"
         id="path3636-7-8-7-7-7-7"
         d="m 149.01743,305.48994 c -2.37071,-0.23057 -4.68103,-0.52762 -5.19594,-0.66807 l -0.49291,-0.13444 0.0347,-1.75344 c 0.0191,-0.96439 0.0735,-1.81743 0.12087,-1.89564 0.0474,-0.0782 0.2429,-0.1422 0.43447,-0.1422 0.19158,0 0.49941,-0.0825 0.68406,-0.18325 0.31836,-0.17377 0.33575,-0.41519 0.33575,-4.66293 l 0,-4.47968 -0.54067,-1.10348 c -0.46239,-0.94371 -0.53024,-1.25051 -0.46864,-2.11898 0.0405,-0.5709 0.23921,-1.34264 0.45387,-1.76268 0.36898,-0.72197 0.38186,-0.9286 0.38186,-6.12818 l 0,-5.38101 -0.47733,-0.38273 -0.47733,-0.38272 -0.0512,-5.16221 c -0.0282,-2.83921 -0.0111,-5.32551 0.038,-5.5251 0.0491,-0.19959 0.36501,-0.49703 0.70211,-0.66099 l 0.61293,-0.29809 0,-1.64036 c 0,-0.9022 -0.0784,-2.83529 -0.17517,-4.29576 -0.0968,-1.46047 -0.25885,-3.89016 -0.36018,-5.39932 -0.10136,-1.50915 -0.24612,-3.70967 -0.32173,-4.89005 -0.0756,-1.18038 -0.19419,-2.23977 -0.26354,-2.3542 -0.17663,-0.29149 -0.42609,-0.0524 -1.58823,1.52246 -0.53296,0.72221 -1.14589,1.50776 -1.36206,1.74567 -0.21619,0.2379 -0.87291,1.12055 -1.45939,1.96144 -0.99061,1.42032 -1.06632,1.59706 -1.06632,2.48869 0,1.11256 -0.30636,1.82403 -1.19076,2.76529 l -0.63178,0.67241 0,5.99562 c 0,3.29759 0.0648,6.06199 0.14407,6.14312 0.0792,0.0811 0.7041,0.18733 1.3886,0.23601 l 1.24453,0.0885 0.0502,1.44351 c 0.0489,1.40687 0.0246,1.50597 -0.95466,3.90525 -0.55265,1.35396 -1.13741,2.6561 -1.29948,2.89365 -0.28365,0.41578 -0.29596,0.33609 -0.32993,-2.13499 -0.0194,-1.41179 -0.0195,-2.77856 -1.5e-4,-3.03728 0.0576,-0.77068 -0.51417,-1.03433 -2.24308,-1.03433 -0.92656,0 -1.56751,0.0802 -1.69714,0.21243 -0.14595,0.14885 -0.20829,1.12904 -0.20829,3.27499 0,2.4135 -0.0484,3.06257 -0.22835,3.06257 -0.13017,0 -0.59325,-0.93256 -1.07684,-2.16858 -0.46668,-1.19272 -0.89855,-2.24824 -0.95974,-2.3456 -0.2944,-0.46845 -0.52671,-1.88574 -0.47877,-2.92094 l 0.0533,-1.15068 1.20779,-0.0532 c 0.66427,-0.0293 1.30867,-0.13859 1.43199,-0.24296 0.17507,-0.14818 0.22421,-1.49074 0.22421,-6.12565 l 0,-5.93586 -0.85462,-0.9216 c -1.38553,-1.49413 -1.56554,-3.09002 -0.53541,-4.74667 0.49153,-0.79048 1.651,-1.71255 2.15347,-1.71255 0.13729,0 0.37284,-0.0482 0.52346,-0.10718 0.21692,-0.0849 3.21512,-4.99362 5.957,-9.75296 0.21324,-0.37012 0.38899,-0.91311 0.39055,-1.20665 0.003,-0.58844 0.52817,-1.71181 1.10599,-2.36641 0.54483,-0.61724 1.99292,-1.25629 2.85128,-1.25829 0.83245,-0.002 1.72772,0.33009 2.65963,0.98636 0.5867,0.41318 0.74349,0.43748 2.51684,0.39012 l 1.89115,-0.0505 0,-1.59324 0,-1.59324 -1.56217,-0.095 c -1.62918,-0.0991 -2.21418,-0.30186 -2.51287,-0.87106 -0.0977,-0.1861 -0.17875,-1.35929 -0.18021,-2.60709 -0.002,-1.2478 -0.0767,-2.38817 -0.16719,-2.53416 -0.10622,-0.17138 -0.55122,-0.29685 -1.25576,-0.35406 l -3.12248,6.9e-4 0.0637,-2.38841 c 0.0659,-2.47195 -0.52307,-2.6828 -0.18731,-2.77236 0.32783,-0.0874 0.94367,-0.24736 0.97527,-2.36688 0.0476,-3.19109 0.18172,-5.36642 -0.004,-5.56347 -0.86072,-1.94067 0.40153,-1.94386 1.57253,-2.35396 0.42902,-0.15025 1.23332,0.92809 1.23332,0.92809 0.059,0.18963 -0.15549,0.96102 -0.30359,1.25315 -0.40215,0.79313 -0.79214,7.4688 -0.38878,7.80988 0.19893,0.16837 1.00216,0.15918 1.21144,0.0252 0.22636,-0.14495 0.30967,-0.56594 0.38337,-1.93704 0.0518,-0.96351 0.15745,-1.89038 0.23482,-2.05971 0.27608,-0.60435 1.30865,-0.68281 8.28167,-0.62929 l 6.78115,0.052 0.41874,0.4967 0.41875,0.49668 0,6.99147 c 0,7.39634 -0.0409,7.80167 -0.81806,8.12032 -0.17061,0.0699 -1.07436,0.15621 -2.00837,0.1917 -0.93399,0.0355 -1.77366,0.11212 -1.86594,0.17028 -0.0923,0.0581 -0.16774,0.77536 -0.16774,1.59378 0,1.77236 0.005,1.77662 1.96206,1.83727 1.24544,0.0386 1.42021,-8.8e-4 2.16969,-0.49081 0.44833,-0.29303 1.18283,-0.63285 1.63223,-0.75515 0.7017,-0.19095 0.95031,-0.17954 1.76004,0.0808 1.04567,0.33617 2.17342,1.27763 2.67535,2.23341 0.26342,0.50164 1.19982,1.14609 5.33737,3.6733 2.75985,1.68572 5.15887,3.06494 5.33114,3.06494 0.29624,0 0.31075,-0.30037 0.26737,-5.53209 l -0.0459,-5.53208 -0.95467,-0.0459 c -1.54247,-0.0742 -1.70715,-0.14962 -1.83425,-0.84067 -0.14607,-0.794 0.0485,-1.85735 0.33982,-1.85735 0.12407,0 0.34144,-0.13941 0.48304,-0.3098 0.23931,-0.28797 1.03812,-2.45674 1.35297,-3.6733 0.32282,-1.2474 0.8127,-2.30161 1.09531,-2.35713 0.27323,-0.0537 0.29886,0.19758 0.29886,2.92991 0,2.12013 0.0631,3.07181 0.21697,3.27496 0.177,0.23362 0.40879,0.26431 1.25842,0.16661 l 1.04146,-0.11977 0.0474,-3.14222 c 0.0376,-2.49147 0.0958,-3.14222 0.28106,-3.14222 0.20528,0 0.67125,1.14626 2.13843,5.26041 0.14635,0.41042 0.45179,0.87031 0.67876,1.02198 0.36397,0.24323 0.41266,0.41061 0.41266,1.41898 0,1.2982 0.0161,1.28539 -1.73575,1.36961 l -0.95467,0.0459 -0.0457,5.90198 -0.0458,5.90198 0.4626,0.55949 c 0.65512,0.79234 0.93073,1.56085 0.93073,2.5953 0,2.20869 -1.61394,3.88136 -3.75407,3.8907 -1.54904,0.007 -2.6934,-0.68748 -3.47717,-2.10947 -0.51555,-0.93539 0.002,-0.63248 -6.13406,-3.59536 -1.19333,-0.57629 -2.89331,-1.40773 -3.77774,-1.84764 -1.67469,-0.83299 -2.12389,-0.87405 -2.12373,-0.19411 5e-5,0.22213 -0.11218,2.55474 -0.2494,5.18358 -0.4587,8.78826 -0.67713,13.75179 -0.63538,14.43915 0.009,0.15235 0.2902,0.40997 0.62433,0.57247 l 0.60751,0.29546 0,5.64736 0,5.64736 -0.43394,0.28998 -0.43393,0.28998 8e-5,5.61652 c 7e-5,5.27533 0.0222,5.67566 0.36406,6.59016 0.43026,1.15097 0.3906,2.43204 -0.10427,3.36755 -0.28695,0.54249 -0.33363,1.1303 -0.39325,4.9527 -0.0425,2.72848 -0.002,4.514 0.11161,4.81395 0.15528,0.41301 0.29062,0.48405 1.01179,0.53108 l 0.83252,0.0543 0.051,1.4959 c 0.0281,0.82275 0.13681,1.60138 0.2417,1.73029 0.10491,0.12891 0.16007,0.25785 0.12261,0.28652 -0.0853,0.0653 -3.42359,0.58031 -5.27538,0.81387 -0.76373,0.0963 -2.28686,0.22747 -3.38472,0.29145 l -1.99612,0.11631 0.0508,-2.19015 c 0.028,-1.20457 0.0841,-2.28972 0.12473,-2.41142 0.0407,-0.12171 0.33415,-0.22129 0.6522,-0.22129 0.31802,0 0.67197,-0.0956 0.78653,-0.21243 0.15041,-0.1534 0.20829,-1.39078 0.20829,-4.45284 l 0,-4.24041 -0.47636,-0.99073 c -0.37094,-0.77148 -0.47636,-1.24538 -0.47636,-2.1414 0,-0.89603 0.10542,-1.36993 0.47636,-2.1414 l 0.47636,-0.99073 0,-5.18133 0,-5.18133 -0.60751,-0.56752 -0.60751,-0.56753 0,-2.14336 c 0,-1.71248 -0.0548,-2.19929 -0.27278,-2.42155 -0.21707,-0.22139 -0.68998,-0.27818 -2.31636,-0.27818 -2.68264,0 -2.61777,-0.0705 -2.61923,2.84636 l -0.002,2.1989 -0.51961,0.30156 -0.51963,0.30156 0,5.41726 c 0,5.16896 0.0172,5.45536 0.37346,6.24842 0.46808,1.04171 0.51196,2.54654 0.0986,3.381 -0.26132,0.5274 -0.29853,1.22588 -0.29853,5.60165 0,5.59702 -0.0971,5.21403 1.32144,5.21403 0.46274,0 0.80199,0.0887 0.84629,0.22129 0.0407,0.1217 0.0968,1.19725 0.12473,2.3901 l 0.0508,2.16881 -1.73575,-0.0257 c -0.95466,-0.0141 -2.36062,-0.0865 -3.12435,-0.16073 z"
         style="fill:none;stroke:#ff0000;stroke-width:0.47867522;stroke-miterlimit:4;stroke-dasharray:none" />
      <path
         inkscape:connector-curvature="0"
         id="path3634-4-8-7-9-2-2"
         d="m 155.97771,224.89579 c 1.17365,-0.50876 5.15829,-4.04497 5.15829,-4.57779 0,-0.64742 -0.22282,-0.62925 -4.1373,0.33697 -1.27812,0.31548 -3.0048,0.24034 -4.71504,-0.2052 -0.62053,-0.16167 -1.62352,-0.37771 -2.22888,-0.48014 -0.96023,-0.16245 -1.13735,-0.14788 -1.3886,0.11419 -0.26918,0.28081 -0.22572,0.35927 0.6667,1.20302 1.98741,1.87905 4.88929,3.84138 5.69017,3.84786 0.21785,0.002 0.64745,-0.10574 0.95466,-0.23891 z"
         style="fill:none;stroke:#ff0000;stroke-width:0.47867522;stroke-miterlimit:4;stroke-dasharray:none" />
      <ellipse
         ry="169.51038"
         rx="110.25675"
         cy="26.937378"
         cx="1731.856"
         transform="matrix(0.6411658,0,0,0.4276839,-952.63522,225.61683)"
         id="path11386-7-9-2-7"
         style="fill:none;stroke:#ff0000;stroke-width:0.9141013;stroke-miterlimit:4;stroke-dasharray:none;stroke-dashoffset:0" />
      <g
         style="stroke:#ff0000;stroke-width:2.73072314;stroke-miterlimit:4;stroke-dasharray:none"
         transform="matrix(0.11157204,0.1356103,-0.13296638,0.11379055,-497.36325,-277.6151)"
         inkscape:label="Hershey Text"
         id="g0212-6-7-7-1-7">
        <path
           inkscape:connector-curvature="0"
           style="fill:none;stroke:#ff0000;stroke-width:2.73072314;stroke-miterlimit:4;stroke-dasharray:none"
           d="m 4744.6289,-587.64095 c 0,0 21.3951,35.81236 21.3951,35.81236 m 1.1618,-41.68874 c 0,0 -1.1618,41.68874 -1.1618,41.68874 m 1.1618,-41.68874 c 0,0 23.0531,34.72338 23.0531,34.72338 m -0.8203,-41.73609 c 0,0 0.8203,41.73609 0.8203,41.73609"
           id="path15584-1-3-6-1-5" />
        <path
           inkscape:connector-curvature="0"
           style="fill:none;stroke:#ff0000;stroke-width:2.73072314;stroke-miterlimit:4;stroke-dasharray:none"
           d="m 4805.6218,-606.45348 c 0,0 26.2379,32.45042 26.2379,32.45042 m -4.7188,-41.42788 c 0,0 4.7188,41.42788 4.7188,41.42788 m -4.7188,-41.42788 c 0,0 27.7119,31.13825 27.7119,31.13825 m -6.6792,-41.2063 c 0,0 6.6792,41.2063 6.6792,41.2063"
           id="path15586-8-3-9-8-9" />
        <path
           inkscape:connector-curvature="0"
           style="fill:none;stroke:#ff0000;stroke-width:2.73072314;stroke-miterlimit:4;stroke-dasharray:none"
           d="m 4863.3819,-633.65276 c 0,0 30.5235,28.43794 30.5235,28.43794 m -10.4895,-40.37178 c 0,0 10.4895,40.37178 10.4895,40.37178 m -10.4895,-40.37178 c 0,0 31.7916,26.9288 31.7916,26.9288 m -12.4029,-39.88366 c 0,0 12.4029,39.88366 12.4029,39.88366"
           id="path15588-4-5-3-93-6" />
        <path
           inkscape:connector-curvature="0"
           style="fill:none;stroke:#ff0000;stroke-width:2.73072314;stroke-miterlimit:4;stroke-dasharray:none"
           d="m 4934.7094,-650.29505 c 0,0 -0.6692,4.10727 -0.6692,4.10727 0,0 4.1408,0.41394 4.1408,0.41394 0,0 0.8167,-4.24534 0.8167,-4.24534 0,0 -4.2883,-0.27587 -4.2883,-0.27587"
           id="path15590-9-9-5-4-8" />
        <path
           inkscape:connector-curvature="0"
           style="fill:none;stroke:#ff0000;stroke-width:2.73072314;stroke-miterlimit:4;stroke-dasharray:none"
           d="m 4945.8141,-720.86635 c 0,0 42.8013,41.83791 42.8013,41.83791 m -22.4197,-21.9151 c 0,0 -8.105,-0.0131 -8.105,-0.0131 0,0 -6.3313,2.19438 -6.3313,2.19438 0,0 -6.3165,5.87017 -6.3165,5.87017 0,0 -2.2685,5.86905 -2.2685,5.86905 0,0 -0.7544,8.2886 -0.7544,8.2886 0,0 3.415,8.31719 3.415,8.31719 0,0 3.6807,4.35267 3.6807,4.35267 0,0 8.0342,4.38814 8.0342,4.38814 0,0 8.3194,0.2404 8.3194,0.2404 0,0 6.7503,-2.23976 6.7503,-2.23976 0,0 7.0022,-6.52339 7.0022,-6.52339 0,0 2.3509,-6.27481 2.3509,-6.27481 0,0 0.5282,-8.53134 0.5282,-8.53134"
           id="path15592-6-9-7-20-2" />
        <path
           inkscape:connector-curvature="0"
           style="fill:none;stroke:#ff0000;stroke-width:2.73072314;stroke-miterlimit:4;stroke-dasharray:none"
           d="m 4976.0529,-723.88506 c 0,0 44.7521,39.74427 44.7521,39.74427 m -38.359,-34.06652 c 0,0 -0.2351,-8.31953 -0.2351,-8.31953 0,0 1.4786,-6.15427 1.4786,-6.15427 0,0 5.4929,-6.63646 5.4929,-6.63646 0,0 6.0237,-2.93507 6.0237,-2.93507 0,0 7.9677,-1.0129 7.9677,-1.0129 0,0 8.6312,2.79393 8.6312,2.79393 0,0 4.5246,3.46715 4.5246,3.46715 0,0 4.9425,7.60753 4.9425,7.60753 0,0 0.57,8.59828 0.57,8.59828 0,0 -1.5844,6.51073 -1.5844,6.51073 0,0 -6.1055,7.37853 -6.1055,7.37853 0,0 -6.3687,3.09357 -6.3687,3.09357 0,0 -8.289,0.74919 -8.289,0.74919"
           id="path15594-3-8-6-9-1" />
        <path
           inkscape:connector-curvature="0"
           style="fill:none;stroke:#ff0000;stroke-width:2.73072314;stroke-miterlimit:4;stroke-dasharray:none"
           d="m 5010.0296,-767.33204 c 0,0 32.8165,22.6989 32.8165,22.6989 m -18.7523,-12.9708 c 0,0 -5.4792,-7.13671 -5.4792,-7.13671 0,0 -1.4396,-8.19739 -1.4396,-8.19739 0,0 0.6326,-6.24953 0.6326,-6.24953 0,0 4.5316,-7.31246 4.5316,-7.31246"
           id="path15596-7-1-6-3-9" />
        <path
           inkscape:connector-curvature="0"
           style="fill:none;stroke:#ff0000;stroke-width:2.73072314;stroke-miterlimit:4;stroke-dasharray:none"
           d="m 5044.0187,-827.6264 c 0,0 41.4301,19.05508 41.4301,19.05508 0,0 6.5011,6.3276 6.5011,6.3276 0,0 1.3223,3.94573 1.3223,3.94573 0,0 -0.5058,7.54798 -0.5058,7.54798 0,0 -4.5522,9.01299 -4.5522,9.01299 0,0 -5.3342,4.05546 -5.3342,4.05546 m -31.0932,-46.37201 c 0,0 -7.7128,3.12768 -7.7128,3.12768 0,0 -5.0366,3.80275 -5.0366,3.80275 0,0 -3.8734,7.67287 -3.8734,7.67287 0,0 -0.2817,6.69481 -0.2817,6.69481 0,0 2.2578,7.69831 2.2578,7.69831 0,0 6.0067,6.79874 6.0067,6.79874 0,0 4.9849,2.76473 4.9849,2.76473 0,0 8.948,1.49542 8.948,1.49542 0,0 8.117,-2.92105 8.117,-2.92105 0,0 5.3341,-4.05546 5.3341,-4.05546 0,0 4.3259,-8.56628 4.3259,-8.56628 0,0 0.2899,-7.09354 0.2899,-7.09354 0,0 -2.6447,-7.89144 -2.6447,-7.89144"
           id="path15598-8-8-58-8-9" />
        <path
           inkscape:connector-curvature="0"
           style="fill:none;stroke:#ff0000;stroke-width:2.73072314;stroke-miterlimit:4;stroke-dasharray:none"
           d="m 5076.8911,-839.50908 c 0,0 1.5211,3.87348 1.5211,3.87348 0,0 3.772,-1.75767 3.772,-1.75767 0,0 -1.481,-4.09246 -1.481,-4.09246 0,0 -3.8121,1.97665 -3.8121,1.97665"
           id="path15600-8-2-2-4-5" />
        <path
           inkscape:connector-curvature="0"
           style="fill:none;stroke:#ff0000;stroke-width:2.73072314;stroke-miterlimit:4;stroke-dasharray:none"
           d="m 5064.0958,-881.53057 c 0,0 1.1245,6.16299 1.1245,6.16299 0,0 3.6298,7.48959 3.6298,7.48959 0,0 7.2366,5.36309 7.2366,5.36309 0,0 5.3945,1.84168 5.3945,1.84168 0,0 9.13,-0.39758 9.13,-0.39758 0,0 7.2508,-4.086 7.2508,-4.086 0,0 4.6119,-5.45252 4.6119,-5.45252 0,0 2.6007,-9.25726 2.6007,-9.25726 0,0 -1.2532,-6.58248 -1.2532,-6.58248 0,0 -4.0015,-7.59455 -4.0015,-7.59455 0,0 -7.658,-4.86392 -7.658,-4.86392 0,0 -5.5565,-1.27215 -5.5565,-1.27215 0,0 -9.0114,1.04749 -9.0114,1.04749 0,0 -6.9006,4.18159 -6.9006,4.18159 0,0 -4.2681,5.16556 -4.2681,5.16556 0,0 -2.3295,8.25447 -2.3295,8.25447"
           id="path15602-2-6-5-14-5" />
        <path
           inkscape:connector-curvature="0"
           style="fill:none;stroke:#ff0000;stroke-width:2.73072314;stroke-miterlimit:4;stroke-dasharray:none"
           d="m 5073.9404,-923.76808 c 0,0 39.3094,6.84974 39.3094,6.84974 m -22.4625,-3.91414 c 0,0 -7.9029,-4.45497 -7.9029,-4.45497 0,0 -4.7227,-6.51949 -4.7227,-6.51949 0,0 -1.9368,-6.41472 -1.9368,-6.41472 0,0 1.0677,-8.50121 1.0677,-8.50121"
           id="path15604-9-6-4-0-4" />
        <path
           inkscape:connector-curvature="0"
           style="fill:none;stroke:#ff0000;stroke-width:2.73072314;stroke-miterlimit:4;stroke-dasharray:none"
           d="m 5079.9825,-993.01128 c 0,0 45.5979,0.60693 45.5979,0.60693 0,0 8.5092,3.1457 8.5092,3.1457 0,0 2.8095,3.06985 2.8095,3.06985 0,0 2.7173,7.16351 2.7173,7.16351 0,0 -0.3633,9.08928 -0.3633,9.08928 0,0 -3.2718,6.92337 -3.2718,6.92337 m -47.4492,-29.88484 c 0,0 -5.7804,5.98795 -5.7804,5.98795 0,0 -2.94,5.49406 -2.94,5.49406 0,0 -0.3633,9.08927 -0.3633,9.08927 0,0 2.5005,5.71203 2.5005,5.71203 0,0 5.2843,6.43004 5.2843,6.43004 0,0 8.2606,3.51261 8.2606,3.51261 0,0 5.6755,0.5301 5.6755,0.5301 0,0 8.8144,-2.52628 8.8144,-2.52628 0,0 6.0909,-5.67182 6.0909,-5.67182 0,0 3.2436,-6.39322 3.2436,-6.39322 0,0 0.3633,-9.08927 0.3633,-9.08927 0,0 -2.7314,-6.63232 -2.7314,-6.63232 0,0 -5.619,-6.13969 -5.619,-6.13969"
           id="path15606-1-0-4-6-5" />
      </g>
      <ellipse
         transform="matrix(0.17799347,0,0,0.19255102,-290.96806,201.57014)"
         ry="466.71906"
         rx="504.90515"
         cy="188.69122"
         cx="2513.9185"
         id="path16813-3-1-0-4"
         style="fill:none;stroke:#ff0000;stroke-width:2.58562779;stroke-miterlimit:4;stroke-dasharray:none;stroke-dashoffset:0" />
      <path
         sodipodi:nodetypes="ccccccccc"
         inkscape:connector-curvature="0"
         id="path17534-8-6-0-4"
         d="m 180.12433,216.09345 -3.29397,-1.75824 3.45319,-1.47758 1.27895,-2.80813 2.15912,3.04102 2.97481,1.55719 -3.24948,1.45524 c 0,0 0,0 -1.6348,2.98269 z"
         style="fill:none;stroke:#ff0000;stroke-width:0.47867522;stroke-linecap:butt;stroke-linejoin:miter;stroke-miterlimit:4;stroke-dasharray:none;stroke-opacity:1" />
    </g>
  </g>
</svg>
