<?xml version="1.0" encoding="UTF-8" standalone="no"?>
<!-- Created with Inkscape (http://www.inkscape.org/) -->

<svg
   xmlns:dc="http://purl.org/dc/elements/1.1/"
   xmlns:cc="http://creativecommons.org/ns#"
   xmlns:rdf="http://www.w3.org/1999/02/22-rdf-syntax-ns#"
   xmlns:svg="http://www.w3.org/2000/svg"
   xmlns="http://www.w3.org/2000/svg"
   xmlns:sodipodi="http://sodipodi.sourceforge.net/DTD/sodipodi-0.dtd"
   xmlns:inkscape="http://www.inkscape.org/namespaces/inkscape"
   width="11in"
   height="8.5in"
   viewBox="0 0 990 765"
   id="svg2"
   version="1.1"
   inkscape:version="0.91 r13725"
   sodipodi:docname="display_support_alt3.svg">
  <defs
     id="defs4" />
  <sodipodi:namedview
     id="base"
     pagecolor="#ffffff"
     bordercolor="#666666"
     borderopacity="1.0"
     inkscape:pageopacity="0.0"
     inkscape:pageshadow="2"
     inkscape:zoom="4"
     inkscape:cx="590.51996"
     inkscape:cy="346.37319"
     inkscape:document-units="in"
     inkscape:current-layer="layer1"
     showgrid="false"
     units="in"
     inkscape:snap-bbox="true"
     inkscape:bbox-paths="true"
     inkscape:bbox-nodes="true"
     inkscape:snap-bbox-edge-midpoints="true"
     inkscape:snap-bbox-midpoints="true"
     inkscape:object-paths="true"
     inkscape:snap-intersection-paths="true"
     inkscape:object-nodes="true"
     inkscape:snap-smooth-nodes="true"
     inkscape:snap-midpoints="true"
     inkscape:snap-grids="false"
     inkscape:snap-object-midpoints="true"
     inkscape:snap-center="true"
     inkscape:snap-text-baseline="true"
     inkscape:window-width="1920"
     inkscape:window-height="1137"
     inkscape:window-x="-8"
     inkscape:window-y="-8"
     inkscape:window-maximized="1"
     showguides="true"
     inkscape:guide-bbox="true"
     inkscape:snap-global="true">
    <sodipodi:guide
       position="542.53271,387.365"
       orientation="0,1"
       id="guide4167"
       inkscape:label=""
       inkscape:color="rgb(0,0,255)" />
  </sodipodi:namedview>
  <metadata
     id="metadata7">
    <rdf:RDF>
      <cc:Work
         rdf:about="">
        <dc:format>image/svg+xml</dc:format>
        <dc:type
           rdf:resource="http://purl.org/dc/dcmitype/StillImage" />
        <dc:title></dc:title>
      </cc:Work>
    </rdf:RDF>
  </metadata>
  <g
     inkscape:label="Layer 1"
     inkscape:groupmode="layer"
     id="layer1"
     transform="translate(0,-287.3622)">
    <g
       id="g5020">
      <circle
         transform="matrix(0,1,-1,0,0,0)"
         r="10.64375"
         cy="-244.88051"
         cx="493.01971"
         id="path5350"
         style="fill:none;stroke:#000000;stroke-width:0.3125;stroke-miterlimit:4;stroke-dasharray:none" />
      <circle
         transform="matrix(0,1,-1,0,0,0)"
         r="10.64375"
         cy="-244.88051"
         cx="656.09979"
         id="path5350-7"
         style="fill:none;stroke:#000000;stroke-width:0.3125;stroke-miterlimit:4;stroke-dasharray:none" />
      <circle
         transform="matrix(0,1,-1,0,0,0)"
         r="10.64375"
         cy="-120.23048"
         cx="493.01971"
         id="path5350-77"
         style="fill:none;stroke:#000000;stroke-width:0.3125;stroke-miterlimit:4;stroke-dasharray:none" />
      <circle
         transform="matrix(0,1,-1,0,0,0)"
         r="10.64375"
         cy="-120.23048"
         cx="656.09979"
         id="path5350-2"
         style="fill:none;stroke:#000000;stroke-width:0.3125;stroke-miterlimit:4;stroke-dasharray:none" />
    </g>
    <path
       style="color:#000000;clip-rule:nonzero;display:inline;overflow:visible;visibility:visible;opacity:1;isolation:auto;mix-blend-mode:normal;color-interpolation:sRGB;color-interpolation-filters:linearRGB;solid-color:#000000;solid-opacity:1;fill:none;fill-opacity:1;fill-rule:evenodd;stroke:#000000;stroke-width:0.3125;stroke-linecap:butt;stroke-linejoin:miter;stroke-miterlimit:4;stroke-dasharray:none;stroke-dashoffset:0;stroke-opacity:1;marker:none;color-rendering:auto;image-rendering:auto;shape-rendering:auto;text-rendering:auto;enable-background:accumulate"
       d="m 439.91992,412.33876 c -15.03714,0 -27.14258,12.10544 -27.14258,27.14258 l 0,19.78516 c -0.0386,0.65507 -0.0644,-0.0557 -0.0644,0.60937 l 0,0 -134.6875,0 -40.41601,0 -5.05274,0 -105.05469,0 c -22.39021,0 -40.414059,18.02386 -40.414059,40.41406 l 0,148.53711 c 0,22.39021 18.023849,40.41602 40.414059,40.41602 l 105.05469,0 5.05274,0 40.41601,0 0,-0.15625 134.6875,0 0,0 c 0,0.66508 0.0259,-0.0457 0.0644,0.60937 l 0,19.78516 c 0,15.03714 12.10544,27.14258 27.14258,27.14258 l 237.58008,0 c 15.03714,0 27.14258,-12.10544 27.14258,-27.14258 l 0,-17.69531 c 0.16337,-1.33341 0.25781,-2.6894 0.25781,-4.06836 l 0,-226.47266 c 0,-1.37896 -0.0944,-2.73495 -0.25781,-4.06836 l 0,-17.69531 c 0,-15.03714 -12.10544,-27.14258 -27.14258,-27.14258 z"
       id="path11666"
       inkscape:connector-curvature="0"
       sodipodi:nodetypes="ssccccccsssscccccccsssscsscsss" />
    <g
       id="g4995">
      <ellipse
         transform="matrix(0,1,-1,0,0,0)"
         id="path3247-2-5-1-0-7-2"
         style="color:#000000;display:inline;overflow:visible;visibility:visible;fill:none;stroke:#ff0000;stroke-width:0.3125;stroke-linecap:butt;stroke-linejoin:miter;stroke-miterlimit:4;stroke-dasharray:none;stroke-dashoffset:0;stroke-opacity:1;marker:none;enable-background:accumulate"
         cx="617.49097"
         cy="-283.82486"
         rx="5.7999997"
         ry="5.8000002" />
      <ellipse
         transform="matrix(0,1,-1,0,0,0)"
         id="path3247-2-5-7-9-6-5"
         style="color:#000000;display:inline;overflow:visible;visibility:visible;fill:none;stroke:#ff0000;stroke-width:0.3125;stroke-linecap:butt;stroke-linejoin:miter;stroke-miterlimit:4;stroke-dasharray:none;stroke-dashoffset:0;stroke-opacity:1;marker:none;enable-background:accumulate"
         cx="633.15436"
         cy="-283.81238"
         rx="5.7999997"
         ry="5.8000002" />
      <ellipse
         transform="matrix(0,1,-1,0,0,0)"
         id="path3247-2-5-4-4-1-0"
         style="color:#000000;display:inline;overflow:visible;visibility:visible;fill:none;stroke:#ff0000;stroke-width:0.3125;stroke-linecap:butt;stroke-linejoin:miter;stroke-miterlimit:4;stroke-dasharray:none;stroke-dashoffset:0;stroke-opacity:1;marker:none;enable-background:accumulate"
         cx="651.4848"
         cy="-283.82486"
         rx="5.7999997"
         ry="5.8000002" />
      <ellipse
         transform="matrix(0,1,-1,0,0,0)"
         id="path3247-2-5-1-0-7-6-3"
         style="color:#000000;display:inline;overflow:visible;visibility:visible;fill:none;stroke:#ff0000;stroke-width:0.3125;stroke-linecap:butt;stroke-linejoin:miter;stroke-miterlimit:4;stroke-dasharray:none;stroke-dashoffset:0;stroke-opacity:1;marker:none;enable-background:accumulate"
         cx="497.47849"
         cy="-283.83737"
         rx="5.7999997"
         ry="5.8000002" />
      <ellipse
         transform="matrix(0,1,-1,0,0,0)"
         id="path3247-2-5-7-9-6-4-1"
         style="color:#000000;display:inline;overflow:visible;visibility:visible;fill:none;stroke:#ff0000;stroke-width:0.3125;stroke-linecap:butt;stroke-linejoin:miter;stroke-miterlimit:4;stroke-dasharray:none;stroke-dashoffset:0;stroke-opacity:1;marker:none;enable-background:accumulate"
         cx="513.14185"
         cy="-283.82486"
         rx="5.7999997"
         ry="5.8000002" />
      <ellipse
         transform="matrix(0,1,-1,0,0,0)"
         id="path3247-2-5-4-4-1-7-7"
         style="color:#000000;display:inline;overflow:visible;visibility:visible;fill:none;stroke:#ff0000;stroke-width:0.3125;stroke-linecap:butt;stroke-linejoin:miter;stroke-miterlimit:4;stroke-dasharray:none;stroke-dashoffset:0;stroke-opacity:1;marker:none;enable-background:accumulate"
         cx="531.47229"
         cy="-283.83737"
         rx="5.7999997"
         ry="5.8000002" />
    </g>
    <g
       id="g5003">
      <ellipse
         transform="matrix(0,1,-1,0,0,0)"
         id="path3247-2-5-1-0-7-2-3"
         style="color:#000000;display:inline;overflow:visible;visibility:visible;fill:none;stroke:#ff0000;stroke-width:0.3125;stroke-linecap:butt;stroke-linejoin:miter;stroke-miterlimit:4;stroke-dasharray:none;stroke-dashoffset:0;stroke-opacity:1;marker:none;enable-background:accumulate"
         cx="617.49097"
         cy="-418.81976"
         rx="5.7999997"
         ry="5.8000002" />
      <ellipse
         transform="matrix(0,1,-1,0,0,0)"
         id="path3247-2-5-7-9-6-5-6"
         style="color:#000000;display:inline;overflow:visible;visibility:visible;fill:none;stroke:#ff0000;stroke-width:0.3125;stroke-linecap:butt;stroke-linejoin:miter;stroke-miterlimit:4;stroke-dasharray:none;stroke-dashoffset:0;stroke-opacity:1;marker:none;enable-background:accumulate"
         cx="633.15436"
         cy="-418.80725"
         rx="5.7999997"
         ry="5.8000002" />
      <ellipse
         transform="matrix(0,1,-1,0,0,0)"
         id="path3247-2-5-4-4-1-0-9"
         style="color:#000000;display:inline;overflow:visible;visibility:visible;fill:none;stroke:#ff0000;stroke-width:0.3125;stroke-linecap:butt;stroke-linejoin:miter;stroke-miterlimit:4;stroke-dasharray:none;stroke-dashoffset:0;stroke-opacity:1;marker:none;enable-background:accumulate"
         cx="651.4848"
         cy="-418.81976"
         rx="5.7999997"
         ry="5.8000002" />
      <ellipse
         transform="matrix(0,1,-1,0,0,0)"
         id="path3247-2-5-1-0-7-6-3-8"
         style="color:#000000;display:inline;overflow:visible;visibility:visible;fill:none;stroke:#ff0000;stroke-width:0.3125;stroke-linecap:butt;stroke-linejoin:miter;stroke-miterlimit:4;stroke-dasharray:none;stroke-dashoffset:0;stroke-opacity:1;marker:none;enable-background:accumulate"
         cx="497.47849"
         cy="-418.83224"
         rx="5.7999997"
         ry="5.8000002" />
      <ellipse
         transform="matrix(0,1,-1,0,0,0)"
         id="path3247-2-5-7-9-6-4-1-2"
         style="color:#000000;display:inline;overflow:visible;visibility:visible;fill:none;stroke:#ff0000;stroke-width:0.3125;stroke-linecap:butt;stroke-linejoin:miter;stroke-miterlimit:4;stroke-dasharray:none;stroke-dashoffset:0;stroke-opacity:1;marker:none;enable-background:accumulate"
         cx="513.14185"
         cy="-418.81976"
         rx="5.7999997"
         ry="5.8000002" />
      <ellipse
         transform="matrix(0,1,-1,0,0,0)"
         id="path3247-2-5-4-4-1-7-7-6"
         style="color:#000000;display:inline;overflow:visible;visibility:visible;fill:none;stroke:#ff0000;stroke-width:0.3125;stroke-linecap:butt;stroke-linejoin:miter;stroke-miterlimit:4;stroke-dasharray:none;stroke-dashoffset:0;stroke-opacity:1;marker:none;enable-background:accumulate"
         cx="531.47229"
         cy="-418.83224"
         rx="5.7999997"
         ry="5.8000002" />
    </g>
    <rect
       style="color:#000000;clip-rule:nonzero;display:inline;overflow:visible;visibility:visible;opacity:1;isolation:auto;mix-blend-mode:normal;color-interpolation:sRGB;color-interpolation-filters:linearRGB;solid-color:#000000;solid-opacity:1;fill:none;fill-opacity:1;fill-rule:evenodd;stroke:#000000;stroke-width:0.3125;stroke-linecap:butt;stroke-linejoin:miter;stroke-miterlimit:4;stroke-dasharray:none;stroke-dashoffset:0;stroke-opacity:1;marker:none;color-rendering:auto;image-rendering:auto;shape-rendering:auto;text-rendering:auto;enable-background:accumulate"
       id="rect11758"
       width="66.107498"
       height="45.407501"
       x="318.28476"
       y="583.16437" />
    <g
       id="g4168"
       transform="translate(-0.2414302,2.312659)">
      <path
         id="path11121-03-9-1"
         transform="translate(0,287.3622)"
         d="m 448.47852,176.94727 a 7.0437498,7.0437498 0 0 0 -7.04493,7.04296 l 0,14.24415 a 7.0437498,7.0437498 0 0 0 7.04493,7.04296 7.0437498,7.0437498 0 0 0 7.04296,-7.04296 l 0,-14.24415 a 7.0437498,7.0437498 0 0 0 -7.04296,-7.04296 z"
         style="color:#000000;clip-rule:nonzero;display:inline;overflow:visible;visibility:visible;opacity:1;isolation:auto;mix-blend-mode:normal;color-interpolation:sRGB;color-interpolation-filters:linearRGB;solid-color:#000000;solid-opacity:1;fill:none;fill-opacity:1;fill-rule:nonzero;stroke:#000000;stroke-width:0.3125;stroke-linecap:butt;stroke-linejoin:miter;stroke-miterlimit:4;stroke-dasharray:none;stroke-dashoffset:0;stroke-opacity:1;color-rendering:auto;image-rendering:auto;shape-rendering:auto;text-rendering:auto;enable-background:accumulate"
         inkscape:connector-curvature="0" />
      <path
         id="path11121-03-9-1-8"
         d="m 681.75924,466.38782 a 7.0437498,7.0437498 0 0 0 -7.04493,7.04296 l 0,14.24415 a 7.0437498,7.0437498 0 0 0 7.04493,7.04296 7.0437498,7.0437498 0 0 0 7.04296,-7.04296 l 0,-14.24415 a 7.0437498,7.0437498 0 0 0 -7.04296,-7.04296 z"
         style="color:#000000;clip-rule:nonzero;display:inline;overflow:visible;visibility:visible;opacity:1;isolation:auto;mix-blend-mode:normal;color-interpolation:sRGB;color-interpolation-filters:linearRGB;solid-color:#000000;solid-opacity:1;fill:none;fill-opacity:1;fill-rule:nonzero;stroke:#000000;stroke-width:0.3125;stroke-linecap:butt;stroke-linejoin:miter;stroke-miterlimit:4;stroke-dasharray:none;stroke-dashoffset:0;stroke-opacity:1;color-rendering:auto;image-rendering:auto;shape-rendering:auto;text-rendering:auto;enable-background:accumulate"
         inkscape:connector-curvature="0" />
      <path
         id="path11121-03-9-1-9"
         d="m 679.75924,651.69788 a 7.0437498,7.0437498 0 0 0 -7.04493,7.04296 l 0,14.24415 a 7.0437498,7.0437498 0 0 0 7.04493,7.04296 7.0437498,7.0437498 0 0 0 7.04296,-7.04296 l 0,-14.24415 a 7.0437498,7.0437498 0 0 0 -7.04296,-7.04296 z"
         style="color:#000000;clip-rule:nonzero;display:inline;overflow:visible;visibility:visible;opacity:1;isolation:auto;mix-blend-mode:normal;color-interpolation:sRGB;color-interpolation-filters:linearRGB;solid-color:#000000;solid-opacity:1;fill:none;fill-opacity:1;fill-rule:nonzero;stroke:#000000;stroke-width:0.3125;stroke-linecap:butt;stroke-linejoin:miter;stroke-miterlimit:4;stroke-dasharray:none;stroke-dashoffset:0;stroke-opacity:1;color-rendering:auto;image-rendering:auto;shape-rendering:auto;text-rendering:auto;enable-background:accumulate"
         inkscape:connector-curvature="0" />
      <path
         id="path11121-03-9-1-2"
         d="m 448.47918,649.69788 a 7.0437498,7.0437498 0 0 0 -7.04493,7.04296 l 0,14.24415 a 7.0437498,7.0437498 0 0 0 7.04493,7.04296 7.0437498,7.0437498 0 0 0 7.04296,-7.04296 l 0,-14.24415 a 7.0437498,7.0437498 0 0 0 -7.04296,-7.04296 z"
         style="color:#000000;clip-rule:nonzero;display:inline;overflow:visible;visibility:visible;opacity:1;isolation:auto;mix-blend-mode:normal;color-interpolation:sRGB;color-interpolation-filters:linearRGB;solid-color:#000000;solid-opacity:1;fill:none;fill-opacity:1;fill-rule:nonzero;stroke:#000000;stroke-width:0.3125;stroke-linecap:butt;stroke-linejoin:miter;stroke-miterlimit:4;stroke-dasharray:none;stroke-dashoffset:0;stroke-opacity:1;color-rendering:auto;image-rendering:auto;shape-rendering:auto;text-rendering:auto;enable-background:accumulate"
         inkscape:connector-curvature="0" />
    </g>
    <path
       style="color:#000000;clip-rule:nonzero;display:inline;overflow:visible;visibility:visible;opacity:1;isolation:auto;mix-blend-mode:normal;color-interpolation:sRGB;color-interpolation-filters:linearRGB;solid-color:#000000;solid-opacity:1;fill:none;fill-opacity:1;fill-rule:evenodd;stroke:#000000;stroke-width:0.31249997;stroke-linecap:butt;stroke-linejoin:miter;stroke-miterlimit:4;stroke-dasharray:none;stroke-dashoffset:0;stroke-opacity:1;marker:none;color-rendering:auto;image-rendering:auto;shape-rendering:auto;text-rendering:auto;enable-background:accumulate"
       d="M 489.0957 169.82227 L 489.0957 377.63477 L 538.5332 377.63477 L 542.5332 377.63477 L 547.0332 377.63477 L 547.0332 388.57227 L 547.04102 388.57227 A 17.84375 17.84375 0 0 0 547.0332 388.72852 A 17.84375 17.84375 0 0 0 564.87695 406.57227 A 17.84375 17.84375 0 0 0 582.7207 388.72852 A 17.84375 17.84375 0 0 0 582.71484 388.57227 L 582.7207 388.57227 L 582.7207 377.63477 L 587.2207 377.63477 L 591.25 377.63477 L 640.6582 377.63477 L 640.6582 169.82227 L 489.0957 169.82227 z "
       transform="translate(0,287.3622)"
       id="rect4166" />
  </g>
</svg>
