<?xml version="1.0" encoding="UTF-8" standalone="no"?>
<!-- Created with Inkscape (http://www.inkscape.org/) -->

<svg
   xmlns:dc="http://purl.org/dc/elements/1.1/"
   xmlns:cc="http://creativecommons.org/ns#"
   xmlns:rdf="http://www.w3.org/1999/02/22-rdf-syntax-ns#"
   xmlns:svg="http://www.w3.org/2000/svg"
   xmlns="http://www.w3.org/2000/svg"
   xmlns:sodipodi="http://sodipodi.sourceforge.net/DTD/sodipodi-0.dtd"
   xmlns:inkscape="http://www.inkscape.org/namespaces/inkscape"
   width="11in"
   height="8.5in"
   viewBox="0 0 990 765"
   id="svg2"
   version="1.1"
   inkscape:version="0.91 r13725"
   sodipodi:docname="microcontroller_deck.svg">
  <defs
     id="defs4" />
  <sodipodi:namedview
     id="base"
     pagecolor="#ffffff"
     bordercolor="#666666"
     borderopacity="1.0"
     inkscape:pageopacity="0.0"
     inkscape:pageshadow="2"
     inkscape:zoom="1.4142136"
     inkscape:cx="537.59926"
     inkscape:cy="324.78064"
     inkscape:document-units="in"
     inkscape:current-layer="layer1"
     showgrid="false"
     units="in"
     inkscape:snap-bbox="true"
     inkscape:bbox-paths="true"
     inkscape:bbox-nodes="true"
     inkscape:snap-bbox-edge-midpoints="true"
     inkscape:snap-bbox-midpoints="true"
     inkscape:object-paths="true"
     inkscape:snap-intersection-paths="true"
     inkscape:object-nodes="true"
     inkscape:snap-smooth-nodes="true"
     inkscape:snap-midpoints="true"
     inkscape:snap-grids="false"
     inkscape:snap-object-midpoints="true"
     inkscape:snap-center="true"
     inkscape:snap-text-baseline="true"
     inkscape:window-width="1920"
     inkscape:window-height="1137"
     inkscape:window-x="-8"
     inkscape:window-y="-8"
     inkscape:window-maximized="1" />
  <metadata
     id="metadata7">
    <rdf:RDF>
      <cc:Work
         rdf:about="">
        <dc:format>image/svg+xml</dc:format>
        <dc:type
           rdf:resource="http://purl.org/dc/dcmitype/StillImage" />
        <dc:title></dc:title>
      </cc:Work>
    </rdf:RDF>
  </metadata>
  <g
     inkscape:label="Layer 1"
     inkscape:groupmode="layer"
     id="layer1"
     transform="translate(0,-287.3622)">
    <g
       transform="translate(49.285717,-83.102133)"
       id="g14324">
      <path
         id="path7095"
         d="m 120.43693,673.94803 c -10.45459,0 -18.87109,8.4165 -18.87109,18.87109 l 0,239.57612 c 0,10.4546 8.4165,18.8711 18.87109,18.8711 l 530.55469,0 c 10.4546,0 18.8711,-8.4165 18.8711,-18.8711 l 0,-239.57612 c 0,-10.45459 -8.4165,-18.87109 -18.8711,-18.87109 l -530.55469,0 z"
         style="color:#000000;clip-rule:nonzero;display:inline;overflow:visible;visibility:visible;opacity:1;isolation:auto;mix-blend-mode:normal;color-interpolation:sRGB;color-interpolation-filters:linearRGB;solid-color:#000000;solid-opacity:1;fill:none;fill-opacity:1;fill-rule:evenodd;stroke:#000000;stroke-width:0.3125;stroke-linecap:butt;stroke-linejoin:miter;stroke-miterlimit:4;stroke-dasharray:none;stroke-dashoffset:0;stroke-opacity:1;marker:none;color-rendering:auto;image-rendering:auto;shape-rendering:auto;text-rendering:auto;enable-background:accumulate"
         inkscape:connector-curvature="0" />
      <g
         id="g14282">
        <ellipse
           style="color:#000000;clip-rule:nonzero;display:inline;overflow:visible;visibility:visible;opacity:1;isolation:auto;mix-blend-mode:normal;color-interpolation:sRGB;color-interpolation-filters:linearRGB;solid-color:#000000;solid-opacity:1;fill:none;fill-opacity:1;fill-rule:nonzero;stroke:#ff0000;stroke-width:0.31249994;stroke-linecap:butt;stroke-linejoin:miter;stroke-miterlimit:4;stroke-dasharray:none;stroke-dashoffset:0;stroke-opacity:1;color-rendering:auto;image-rendering:auto;shape-rendering:auto;text-rendering:auto;enable-background:accumulate"
           id="path7066-1"
           cx="123.70549"
           cy="929.12677"
           rx="6.8187499"
           ry="6.8187504" />
        <ellipse
           style="color:#000000;clip-rule:nonzero;display:inline;overflow:visible;visibility:visible;opacity:1;isolation:auto;mix-blend-mode:normal;color-interpolation:sRGB;color-interpolation-filters:linearRGB;solid-color:#000000;solid-opacity:1;fill:none;fill-opacity:1;fill-rule:nonzero;stroke:#ff0000;stroke-width:0.31249994;stroke-linecap:butt;stroke-linejoin:miter;stroke-miterlimit:4;stroke-dasharray:none;stroke-dashoffset:0;stroke-opacity:1;color-rendering:auto;image-rendering:auto;shape-rendering:auto;text-rendering:auto;enable-background:accumulate"
           id="path7066-12"
           cx="123.70549"
           cy="696.08771"
           rx="6.8187499"
           ry="6.8187504" />
        <ellipse
           style="color:#000000;clip-rule:nonzero;display:inline;overflow:visible;visibility:visible;opacity:1;isolation:auto;mix-blend-mode:normal;color-interpolation:sRGB;color-interpolation-filters:linearRGB;solid-color:#000000;solid-opacity:1;fill:none;fill-opacity:1;fill-rule:nonzero;stroke:#ff0000;stroke-width:0.31249994;stroke-linecap:butt;stroke-linejoin:miter;stroke-miterlimit:4;stroke-dasharray:none;stroke-dashoffset:0;stroke-opacity:1;color-rendering:auto;image-rendering:auto;shape-rendering:auto;text-rendering:auto;enable-background:accumulate"
           id="path7066-6"
           cx="647.5434"
           cy="696.2674"
           rx="6.8187499"
           ry="6.8187504" />
        <ellipse
           style="color:#000000;clip-rule:nonzero;display:inline;overflow:visible;visibility:visible;opacity:1;isolation:auto;mix-blend-mode:normal;color-interpolation:sRGB;color-interpolation-filters:linearRGB;solid-color:#000000;solid-opacity:1;fill:none;fill-opacity:1;fill-rule:nonzero;stroke:#ff0000;stroke-width:0.31249994;stroke-linecap:butt;stroke-linejoin:miter;stroke-miterlimit:4;stroke-dasharray:none;stroke-dashoffset:0;stroke-opacity:1;color-rendering:auto;image-rendering:auto;shape-rendering:auto;text-rendering:auto;enable-background:accumulate"
           id="path7066-5"
           cx="647.72308"
           cy="929.12677"
           rx="6.8187499"
           ry="6.8187504" />
      </g>
      <g
         transform="translate(-10,0)"
         id="g14288">
        <path
           inkscape:connector-curvature="0"
           style="color:#000000;clip-rule:nonzero;display:inline;overflow:visible;visibility:visible;opacity:1;isolation:auto;mix-blend-mode:normal;color-interpolation:sRGB;color-interpolation-filters:linearRGB;solid-color:#000000;solid-opacity:1;fill:none;fill-opacity:1;fill-rule:nonzero;stroke:#ff0000;stroke-width:0.31249994;stroke-linecap:butt;stroke-linejoin:miter;stroke-miterlimit:4;stroke-dasharray:none;stroke-dashoffset:0;stroke-opacity:1;color-rendering:auto;image-rendering:auto;shape-rendering:auto;text-rendering:auto;enable-background:accumulate"
           d="m 221.03761,686.68462 a 6.8187499,6.8187504 0 0 0 -6.81836,6.82031 6.8187499,6.8187504 0 0 0 6.81836,6.81836 6.8187499,6.8187504 0 0 0 0.004,0 l 27.27149,0 a 6.8187499,6.8187504 0 0 0 6.81836,-6.81836 6.8187499,6.8187504 0 0 0 -6.81836,-6.82031 l -27.27149,0 a 6.8187499,6.8187504 0 0 0 -0.004,0 z"
           id="path7066-6-4-3-2" />
        <path
           inkscape:connector-curvature="0"
           style="color:#000000;clip-rule:nonzero;display:inline;overflow:visible;visibility:visible;opacity:1;isolation:auto;mix-blend-mode:normal;color-interpolation:sRGB;color-interpolation-filters:linearRGB;solid-color:#000000;solid-opacity:1;fill:none;fill-opacity:1;fill-rule:nonzero;stroke:#ff0000;stroke-width:0.31249994;stroke-linecap:butt;stroke-linejoin:miter;stroke-miterlimit:4;stroke-dasharray:none;stroke-dashoffset:0;stroke-opacity:1;color-rendering:auto;image-rendering:auto;shape-rendering:auto;text-rendering:auto;enable-background:accumulate"
           d="m 444.61645,924.89047 a 6.8187499,6.8187504 0 0 0 -6.81836,6.82031 6.8187499,6.8187504 0 0 0 6.81836,6.81836 6.8187499,6.8187504 0 0 0 0.004,0 l 27.27149,0 a 6.8187499,6.8187504 0 0 0 6.81836,-6.81836 6.8187499,6.8187504 0 0 0 -6.81836,-6.82031 l -27.27149,0 a 6.8187499,6.8187504 0 0 0 -0.004,0 z"
           id="path7066-6-4-3-3" />
      </g>
      <g
         transform="matrix(0,1,-1,0,1346.5887,255.001)"
         id="g14228">
        <path
           inkscape:connector-curvature="0"
           style="color:#000000;clip-rule:nonzero;display:inline;overflow:visible;visibility:visible;opacity:1;isolation:auto;mix-blend-mode:normal;color-interpolation:sRGB;color-interpolation-filters:linearRGB;solid-color:#000000;solid-opacity:1;fill:none;fill-opacity:1;fill-rule:nonzero;stroke:#ff0000;stroke-width:0.31249994;stroke-linecap:butt;stroke-linejoin:miter;stroke-miterlimit:4;stroke-dasharray:none;stroke-dashoffset:0;stroke-opacity:1;color-rendering:auto;image-rendering:auto;shape-rendering:auto;text-rendering:auto;enable-background:accumulate"
           d="m 458.24146,790.98442 a 6.8187499,6.8187504 0 0 0 -6.81836,6.82031 6.8187499,6.8187504 0 0 0 6.81836,6.81836 6.8187499,6.8187504 0 0 0 0.004,0 l 27.27149,0 a 6.8187499,6.8187504 0 0 0 6.81836,-6.81836 6.8187499,6.8187504 0 0 0 -6.81836,-6.82031 l -27.27149,0 a 6.8187499,6.8187504 0 0 0 -0.004,0 z"
           id="path7066-6-4-3-1" />
        <path
           inkscape:connector-curvature="0"
           style="color:#000000;clip-rule:nonzero;display:inline;overflow:visible;visibility:visible;opacity:1;isolation:auto;mix-blend-mode:normal;color-interpolation:sRGB;color-interpolation-filters:linearRGB;solid-color:#000000;solid-opacity:1;fill:none;fill-opacity:1;fill-rule:nonzero;stroke:#ff0000;stroke-width:0.31249994;stroke-linecap:butt;stroke-linejoin:miter;stroke-miterlimit:4;stroke-dasharray:none;stroke-dashoffset:0;stroke-opacity:1;color-rendering:auto;image-rendering:auto;shape-rendering:auto;text-rendering:auto;enable-background:accumulate"
           d="m 629.69145,790.98443 a 6.8187499,6.8187504 0 0 0 -6.81836,6.82031 6.8187499,6.8187504 0 0 0 6.81836,6.81836 6.8187499,6.8187504 0 0 0 0.004,0 l 27.27149,0 a 6.8187499,6.8187504 0 0 0 6.81836,-6.81836 6.8187499,6.8187504 0 0 0 -6.81836,-6.82031 l -27.27149,0 a 6.8187499,6.8187504 0 0 0 -0.004,0 z"
           id="path7066-6-4-3-7-6" />
      </g>
      <g
         transform="translate(2,0)"
         id="g14278">
        <path
           inkscape:connector-curvature="0"
           style="color:#000000;clip-rule:nonzero;display:inline;overflow:visible;visibility:visible;opacity:1;isolation:auto;mix-blend-mode:normal;color-interpolation:sRGB;color-interpolation-filters:linearRGB;solid-color:#000000;solid-opacity:1;fill:none;fill-opacity:1;fill-rule:nonzero;stroke:#ff0000;stroke-width:0.31249994;stroke-linecap:butt;stroke-linejoin:miter;stroke-miterlimit:4;stroke-dasharray:none;stroke-dashoffset:0;stroke-opacity:1;color-rendering:auto;image-rendering:auto;shape-rendering:auto;text-rendering:auto;enable-background:accumulate"
           d="m 578.3764,798.96942 a 6.8187504,6.8187499 0 0 0 -6.82031,-6.81836 6.8187504,6.8187499 0 0 0 -6.81836,6.81836 6.8187504,6.8187499 0 0 0 0,0.004 l 0,27.27149 a 6.8187504,6.8187499 0 0 0 6.81836,6.81836 6.8187504,6.8187499 0 0 0 6.82031,-6.81836 l 0,-27.27149 a 6.8187504,6.8187499 0 0 0 0,-0.004 z"
           id="path7066-6-4-3-8" />
        <path
           inkscape:connector-curvature="0"
           style="color:#000000;clip-rule:nonzero;display:inline;overflow:visible;visibility:visible;opacity:1;isolation:auto;mix-blend-mode:normal;color-interpolation:sRGB;color-interpolation-filters:linearRGB;solid-color:#000000;solid-opacity:1;fill:none;fill-opacity:1;fill-rule:nonzero;stroke:#ff0000;stroke-width:0.31249994;stroke-linecap:butt;stroke-linejoin:miter;stroke-miterlimit:4;stroke-dasharray:none;stroke-dashoffset:0;stroke-opacity:1;color-rendering:auto;image-rendering:auto;shape-rendering:auto;text-rendering:auto;enable-background:accumulate"
           d="m 652.17523,798.96944 a 6.8187504,6.8187499 0 0 0 -6.82031,-6.81836 6.8187504,6.8187499 0 0 0 -6.81836,6.81836 6.8187504,6.8187499 0 0 0 0,0.004 l 0,27.27149 a 6.8187504,6.8187499 0 0 0 6.81836,6.81836 6.8187504,6.8187499 0 0 0 6.82031,-6.81836 l 0,-27.27149 a 6.8187504,6.8187499 0 0 0 0,-0.004 z"
           id="path7066-6-4-3-7-0" />
      </g>
    </g>
  </g>
</svg>
