<?xml version="1.0" encoding="UTF-8" standalone="no"?>
<!-- Created with Inkscape (http://www.inkscape.org/) -->

<svg
   xmlns:dc="http://purl.org/dc/elements/1.1/"
   xmlns:cc="http://creativecommons.org/ns#"
   xmlns:rdf="http://www.w3.org/1999/02/22-rdf-syntax-ns#"
   xmlns:svg="http://www.w3.org/2000/svg"
   xmlns="http://www.w3.org/2000/svg"
   xmlns:sodipodi="http://sodipodi.sourceforge.net/DTD/sodipodi-0.dtd"
   xmlns:inkscape="http://www.inkscape.org/namespaces/inkscape"
   width="11in"
   height="8.5in"
   viewBox="0 0 990 765"
   id="svg2"
   version="1.1"
   inkscape:version="0.91 r13725"
   sodipodi:docname="washers.svg">
  <defs
     id="defs4" />
  <sodipodi:namedview
     id="base"
     pagecolor="#ffffff"
     bordercolor="#666666"
     borderopacity="1.0"
     inkscape:pageopacity="0.0"
     inkscape:pageshadow="2"
     inkscape:zoom="0.35"
     inkscape:cx="747.90081"
     inkscape:cy="-304.99887"
     inkscape:document-units="in"
     inkscape:current-layer="layer1"
     showgrid="false"
     units="in"
     inkscape:snap-bbox="true"
     inkscape:bbox-paths="true"
     inkscape:bbox-nodes="true"
     inkscape:snap-bbox-edge-midpoints="true"
     inkscape:snap-bbox-midpoints="true"
     inkscape:object-paths="true"
     inkscape:snap-intersection-paths="true"
     inkscape:object-nodes="true"
     inkscape:snap-smooth-nodes="true"
     inkscape:snap-midpoints="true"
     inkscape:snap-grids="false"
     inkscape:snap-object-midpoints="true"
     inkscape:snap-center="true"
     inkscape:snap-text-baseline="true"
     inkscape:window-width="1920"
     inkscape:window-height="1137"
     inkscape:window-x="-8"
     inkscape:window-y="-8"
     inkscape:window-maximized="1" />
  <metadata
     id="metadata7">
    <rdf:RDF>
      <cc:Work
         rdf:about="">
        <dc:format>image/svg+xml</dc:format>
        <dc:type
           rdf:resource="http://purl.org/dc/dcmitype/StillImage" />
        <dc:title></dc:title>
      </cc:Work>
    </rdf:RDF>
  </metadata>
  <g
     inkscape:label="Layer 1"
     inkscape:groupmode="layer"
     id="layer1"
     transform="translate(0,-287.3622)">
    <path
       inkscape:tile-y0="137.69527"
       inkscape:tile-x0="84.848145"
       inkscape:connector-curvature="0"
       id="use5581"
       d="m 116.27142,508.87811 a 15.593747,15.59375 0 0 0 -15.59376,15.5938 15.593747,15.59375 0 0 0 15.59376,15.5937 15.593747,15.59375 0 0 0 15.59375,-15.5937 15.593747,15.59375 0 0 0 -15.59375,-15.5938 z m 0,9.0449 a 6.5488935,6.5488971 0 0 1 6.54882,6.5469 6.5488935,6.5488971 0 0 1 -6.54882,6.5508 6.5488935,6.5488971 0 0 1 -6.54884,-6.5508 6.5488935,6.5488971 0 0 1 6.54884,-6.5469 z"
       style="fill:none;stroke:#000000;stroke-width:0.3125;stroke-miterlimit:4;stroke-dasharray:none" />
    <path
       inkscape:tile-y0="137.69527"
       inkscape:tile-x0="84.848145"
       inkscape:connector-curvature="0"
       id="use5583"
       d="m 116.27142,543.52811 a 15.593747,15.59375 0 0 0 -15.59376,15.5938 15.593747,15.59375 0 0 0 15.59376,15.5937 15.593747,15.59375 0 0 0 15.59375,-15.5937 15.593747,15.59375 0 0 0 -15.59375,-15.5938 z m 0,9.0449 a 6.5488935,6.5488971 0 0 1 6.54882,6.5469 6.5488935,6.5488971 0 0 1 -6.54882,6.5508 6.5488935,6.5488971 0 0 1 -6.54884,-6.5508 6.5488935,6.5488971 0 0 1 6.54884,-6.5469 z"
       style="fill:none;stroke:#000000;stroke-width:0.3125;stroke-miterlimit:4;stroke-dasharray:none" />
    <path
       inkscape:tile-y0="137.69527"
       inkscape:tile-x0="84.848145"
       inkscape:connector-curvature="0"
       id="use5585"
       d="m 116.27142,578.17811 a 15.593747,15.59375 0 0 0 -15.59376,15.5938 15.593747,15.59375 0 0 0 15.59376,15.5937 15.593747,15.59375 0 0 0 15.59375,-15.5937 15.593747,15.59375 0 0 0 -15.59375,-15.5938 z m 0,9.0449 a 6.5488935,6.5488971 0 0 1 6.54882,6.5469 6.5488935,6.5488971 0 0 1 -6.54882,6.5508 6.5488935,6.5488971 0 0 1 -6.54884,-6.5508 6.5488935,6.5488971 0 0 1 6.54884,-6.5469 z"
       style="fill:none;stroke:#000000;stroke-width:0.3125;stroke-miterlimit:4;stroke-dasharray:none" />
    <path
       inkscape:tile-y0="137.69527"
       inkscape:tile-x0="84.848145"
       inkscape:connector-curvature="0"
       id="use5587"
       d="m 116.27142,612.82811 a 15.593747,15.59375 0 0 0 -15.59376,15.5938 15.593747,15.59375 0 0 0 15.59376,15.5937 15.593747,15.59375 0 0 0 15.59375,-15.5937 15.593747,15.59375 0 0 0 -15.59375,-15.5938 z m 0,9.0449 a 6.5488935,6.5488971 0 0 1 6.54882,6.5469 6.5488935,6.5488971 0 0 1 -6.54882,6.5508 6.5488935,6.5488971 0 0 1 -6.54884,-6.5508 6.5488935,6.5488971 0 0 1 6.54884,-6.5469 z"
       style="fill:none;stroke:#000000;stroke-width:0.3125;stroke-miterlimit:4;stroke-dasharray:none" />
    <path
       inkscape:tile-y0="137.69527"
       inkscape:tile-x0="84.848145"
       inkscape:connector-curvature="0"
       id="use5589"
       d="m 116.27142,647.47811 a 15.593747,15.59375 0 0 0 -15.59376,15.5938 15.593747,15.59375 0 0 0 15.59376,15.5937 15.593747,15.59375 0 0 0 15.59375,-15.5937 15.593747,15.59375 0 0 0 -15.59375,-15.5938 z m 0,9.0449 a 6.5488935,6.5488971 0 0 1 6.54882,6.5469 6.5488935,6.5488971 0 0 1 -6.54882,6.5508 6.5488935,6.5488971 0 0 1 -6.54884,-6.5508 6.5488935,6.5488971 0 0 1 6.54884,-6.5469 z"
       style="fill:none;stroke:#000000;stroke-width:0.3125;stroke-miterlimit:4;stroke-dasharray:none" />
    <path
       inkscape:tile-y0="137.69527"
       inkscape:tile-x0="84.848145"
       inkscape:connector-curvature="0"
       id="use5591"
       d="m 150.92143,508.87811 a 15.593747,15.59375 0 0 0 -15.59376,15.5938 15.593747,15.59375 0 0 0 15.59376,15.5937 15.593747,15.59375 0 0 0 15.59375,-15.5937 15.593747,15.59375 0 0 0 -15.59375,-15.5938 z m 0,9.0449 a 6.5488935,6.5488971 0 0 1 6.54882,6.5469 6.5488935,6.5488971 0 0 1 -6.54882,6.5508 6.5488935,6.5488971 0 0 1 -6.54884,-6.5508 6.5488935,6.5488971 0 0 1 6.54884,-6.5469 z"
       style="fill:none;stroke:#000000;stroke-width:0.3125;stroke-miterlimit:4;stroke-dasharray:none" />
    <path
       inkscape:tile-y0="137.69527"
       inkscape:tile-x0="84.848145"
       inkscape:connector-curvature="0"
       id="use5593"
       d="m 150.92143,543.52811 a 15.593747,15.59375 0 0 0 -15.59376,15.5938 15.593747,15.59375 0 0 0 15.59376,15.5937 15.593747,15.59375 0 0 0 15.59375,-15.5937 15.593747,15.59375 0 0 0 -15.59375,-15.5938 z m 0,9.0449 a 6.5488935,6.5488971 0 0 1 6.54882,6.5469 6.5488935,6.5488971 0 0 1 -6.54882,6.5508 6.5488935,6.5488971 0 0 1 -6.54884,-6.5508 6.5488935,6.5488971 0 0 1 6.54884,-6.5469 z"
       style="fill:none;stroke:#000000;stroke-width:0.3125;stroke-miterlimit:4;stroke-dasharray:none" />
    <path
       inkscape:tile-y0="137.69527"
       inkscape:tile-x0="84.848145"
       inkscape:connector-curvature="0"
       id="use5595"
       d="m 150.92143,578.17811 a 15.593747,15.59375 0 0 0 -15.59376,15.5938 15.593747,15.59375 0 0 0 15.59376,15.5937 15.593747,15.59375 0 0 0 15.59375,-15.5937 15.593747,15.59375 0 0 0 -15.59375,-15.5938 z m 0,9.0449 a 6.5488935,6.5488971 0 0 1 6.54882,6.5469 6.5488935,6.5488971 0 0 1 -6.54882,6.5508 6.5488935,6.5488971 0 0 1 -6.54884,-6.5508 6.5488935,6.5488971 0 0 1 6.54884,-6.5469 z"
       style="fill:none;stroke:#000000;stroke-width:0.3125;stroke-miterlimit:4;stroke-dasharray:none" />
    <path
       inkscape:tile-y0="137.69527"
       inkscape:tile-x0="84.848145"
       inkscape:connector-curvature="0"
       id="use5597"
       d="m 150.92143,612.82811 a 15.593747,15.59375 0 0 0 -15.59376,15.5938 15.593747,15.59375 0 0 0 15.59376,15.5937 15.593747,15.59375 0 0 0 15.59375,-15.5937 15.593747,15.59375 0 0 0 -15.59375,-15.5938 z m 0,9.0449 a 6.5488935,6.5488971 0 0 1 6.54882,6.5469 6.5488935,6.5488971 0 0 1 -6.54882,6.5508 6.5488935,6.5488971 0 0 1 -6.54884,-6.5508 6.5488935,6.5488971 0 0 1 6.54884,-6.5469 z"
       style="fill:none;stroke:#000000;stroke-width:0.3125;stroke-miterlimit:4;stroke-dasharray:none" />
    <path
       inkscape:tile-y0="137.69527"
       inkscape:tile-x0="84.848145"
       inkscape:connector-curvature="0"
       id="use5599"
       d="m 150.92143,647.47811 a 15.593747,15.59375 0 0 0 -15.59376,15.5938 15.593747,15.59375 0 0 0 15.59376,15.5937 15.593747,15.59375 0 0 0 15.59375,-15.5937 15.593747,15.59375 0 0 0 -15.59375,-15.5938 z m 0,9.0449 a 6.5488935,6.5488971 0 0 1 6.54882,6.5469 6.5488935,6.5488971 0 0 1 -6.54882,6.5508 6.5488935,6.5488971 0 0 1 -6.54884,-6.5508 6.5488935,6.5488971 0 0 1 6.54884,-6.5469 z"
       style="fill:none;stroke:#000000;stroke-width:0.3125;stroke-miterlimit:4;stroke-dasharray:none" />
    <path
       inkscape:tile-y0="137.69527"
       inkscape:tile-x0="84.848145"
       inkscape:connector-curvature="0"
       id="use5601"
       d="m 185.57143,508.87811 a 15.593747,15.59375 0 0 0 -15.59376,15.5938 15.593747,15.59375 0 0 0 15.59376,15.5937 15.593747,15.59375 0 0 0 15.59375,-15.5937 15.593747,15.59375 0 0 0 -15.59375,-15.5938 z m 0,9.0449 a 6.5488935,6.5488971 0 0 1 6.54882,6.5469 6.5488935,6.5488971 0 0 1 -6.54882,6.5508 6.5488935,6.5488971 0 0 1 -6.54884,-6.5508 6.5488935,6.5488971 0 0 1 6.54884,-6.5469 z"
       style="fill:none;stroke:#000000;stroke-width:0.3125;stroke-miterlimit:4;stroke-dasharray:none" />
    <path
       inkscape:tile-y0="137.69527"
       inkscape:tile-x0="84.848145"
       inkscape:connector-curvature="0"
       id="use5603"
       d="m 185.57143,543.52811 a 15.593747,15.59375 0 0 0 -15.59376,15.5938 15.593747,15.59375 0 0 0 15.59376,15.5937 15.593747,15.59375 0 0 0 15.59375,-15.5937 15.593747,15.59375 0 0 0 -15.59375,-15.5938 z m 0,9.0449 a 6.5488935,6.5488971 0 0 1 6.54882,6.5469 6.5488935,6.5488971 0 0 1 -6.54882,6.5508 6.5488935,6.5488971 0 0 1 -6.54884,-6.5508 6.5488935,6.5488971 0 0 1 6.54884,-6.5469 z"
       style="fill:none;stroke:#000000;stroke-width:0.3125;stroke-miterlimit:4;stroke-dasharray:none" />
    <path
       inkscape:tile-y0="137.69527"
       inkscape:tile-x0="84.848145"
       inkscape:connector-curvature="0"
       id="use5605"
       d="m 185.57143,578.17811 a 15.593747,15.59375 0 0 0 -15.59376,15.5938 15.593747,15.59375 0 0 0 15.59376,15.5937 15.593747,15.59375 0 0 0 15.59375,-15.5937 15.593747,15.59375 0 0 0 -15.59375,-15.5938 z m 0,9.0449 a 6.5488935,6.5488971 0 0 1 6.54882,6.5469 6.5488935,6.5488971 0 0 1 -6.54882,6.5508 6.5488935,6.5488971 0 0 1 -6.54884,-6.5508 6.5488935,6.5488971 0 0 1 6.54884,-6.5469 z"
       style="fill:none;stroke:#000000;stroke-width:0.3125;stroke-miterlimit:4;stroke-dasharray:none" />
    <path
       inkscape:tile-y0="137.69527"
       inkscape:tile-x0="84.848145"
       inkscape:connector-curvature="0"
       id="use5607"
       d="m 185.57143,612.82811 a 15.593747,15.59375 0 0 0 -15.59376,15.5938 15.593747,15.59375 0 0 0 15.59376,15.5937 15.593747,15.59375 0 0 0 15.59375,-15.5937 15.593747,15.59375 0 0 0 -15.59375,-15.5938 z m 0,9.0449 a 6.5488935,6.5488971 0 0 1 6.54882,6.5469 6.5488935,6.5488971 0 0 1 -6.54882,6.5508 6.5488935,6.5488971 0 0 1 -6.54884,-6.5508 6.5488935,6.5488971 0 0 1 6.54884,-6.5469 z"
       style="fill:none;stroke:#000000;stroke-width:0.3125;stroke-miterlimit:4;stroke-dasharray:none" />
    <path
       inkscape:tile-y0="137.69527"
       inkscape:tile-x0="84.848145"
       inkscape:connector-curvature="0"
       id="use5609"
       d="m 185.57143,647.47811 a 15.593747,15.59375 0 0 0 -15.59376,15.5938 15.593747,15.59375 0 0 0 15.59376,15.5937 15.593747,15.59375 0 0 0 15.59375,-15.5937 15.593747,15.59375 0 0 0 -15.59375,-15.5938 z m 0,9.0449 a 6.5488935,6.5488971 0 0 1 6.54882,6.5469 6.5488935,6.5488971 0 0 1 -6.54882,6.5508 6.5488935,6.5488971 0 0 1 -6.54884,-6.5508 6.5488935,6.5488971 0 0 1 6.54884,-6.5469 z"
       style="fill:none;stroke:#000000;stroke-width:0.3125;stroke-miterlimit:4;stroke-dasharray:none" />
    <path
       inkscape:tile-y0="137.69527"
       inkscape:tile-x0="84.848145"
       inkscape:connector-curvature="0"
       id="use5611"
       d="m 220.22144,508.87811 a 15.593747,15.59375 0 0 0 -15.59376,15.5938 15.593747,15.59375 0 0 0 15.59376,15.5937 15.593747,15.59375 0 0 0 15.59375,-15.5937 15.593747,15.59375 0 0 0 -15.59375,-15.5938 z m 0,9.0449 a 6.5488935,6.5488971 0 0 1 6.54882,6.5469 6.5488935,6.5488971 0 0 1 -6.54882,6.5508 6.5488935,6.5488971 0 0 1 -6.54884,-6.5508 6.5488935,6.5488971 0 0 1 6.54884,-6.5469 z"
       style="fill:none;stroke:#000000;stroke-width:0.3125;stroke-miterlimit:4;stroke-dasharray:none" />
    <path
       inkscape:tile-y0="137.69527"
       inkscape:tile-x0="84.848145"
       inkscape:connector-curvature="0"
       id="use5613"
       d="m 220.22144,543.52811 a 15.593747,15.59375 0 0 0 -15.59376,15.5938 15.593747,15.59375 0 0 0 15.59376,15.5937 15.593747,15.59375 0 0 0 15.59375,-15.5937 15.593747,15.59375 0 0 0 -15.59375,-15.5938 z m 0,9.0449 a 6.5488935,6.5488971 0 0 1 6.54882,6.5469 6.5488935,6.5488971 0 0 1 -6.54882,6.5508 6.5488935,6.5488971 0 0 1 -6.54884,-6.5508 6.5488935,6.5488971 0 0 1 6.54884,-6.5469 z"
       style="fill:none;stroke:#000000;stroke-width:0.3125;stroke-miterlimit:4;stroke-dasharray:none" />
    <path
       inkscape:tile-y0="137.69527"
       inkscape:tile-x0="84.848145"
       inkscape:connector-curvature="0"
       id="use5615"
       d="m 220.22144,578.17811 a 15.593747,15.59375 0 0 0 -15.59376,15.5938 15.593747,15.59375 0 0 0 15.59376,15.5937 15.593747,15.59375 0 0 0 15.59375,-15.5937 15.593747,15.59375 0 0 0 -15.59375,-15.5938 z m 0,9.0449 a 6.5488935,6.5488971 0 0 1 6.54882,6.5469 6.5488935,6.5488971 0 0 1 -6.54882,6.5508 6.5488935,6.5488971 0 0 1 -6.54884,-6.5508 6.5488935,6.5488971 0 0 1 6.54884,-6.5469 z"
       style="fill:none;stroke:#000000;stroke-width:0.3125;stroke-miterlimit:4;stroke-dasharray:none" />
    <path
       inkscape:tile-y0="137.69527"
       inkscape:tile-x0="84.848145"
       inkscape:connector-curvature="0"
       id="use5617"
       d="m 220.22144,612.82811 a 15.593747,15.59375 0 0 0 -15.59376,15.5938 15.593747,15.59375 0 0 0 15.59376,15.5937 15.593747,15.59375 0 0 0 15.59375,-15.5937 15.593747,15.59375 0 0 0 -15.59375,-15.5938 z m 0,9.0449 a 6.5488935,6.5488971 0 0 1 6.54882,6.5469 6.5488935,6.5488971 0 0 1 -6.54882,6.5508 6.5488935,6.5488971 0 0 1 -6.54884,-6.5508 6.5488935,6.5488971 0 0 1 6.54884,-6.5469 z"
       style="fill:none;stroke:#000000;stroke-width:0.3125;stroke-miterlimit:4;stroke-dasharray:none" />
    <path
       inkscape:tile-y0="137.69527"
       inkscape:tile-x0="84.848145"
       inkscape:connector-curvature="0"
       id="use5619"
       d="m 220.22144,647.47811 a 15.593747,15.59375 0 0 0 -15.59376,15.5938 15.593747,15.59375 0 0 0 15.59376,15.5937 15.593747,15.59375 0 0 0 15.59375,-15.5937 15.593747,15.59375 0 0 0 -15.59375,-15.5938 z m 0,9.0449 a 6.5488935,6.5488971 0 0 1 6.54882,6.5469 6.5488935,6.5488971 0 0 1 -6.54882,6.5508 6.5488935,6.5488971 0 0 1 -6.54884,-6.5508 6.5488935,6.5488971 0 0 1 6.54884,-6.5469 z"
       style="fill:none;stroke:#000000;stroke-width:0.3125;stroke-miterlimit:4;stroke-dasharray:none" />
    <path
       inkscape:tile-y0="137.69527"
       inkscape:tile-x0="84.848145"
       inkscape:connector-curvature="0"
       id="use5621"
       d="m 254.87144,508.87811 a 15.593747,15.59375 0 0 0 -15.59376,15.5938 15.593747,15.59375 0 0 0 15.59376,15.5937 15.593747,15.59375 0 0 0 15.59375,-15.5937 15.593747,15.59375 0 0 0 -15.59375,-15.5938 z m 0,9.0449 a 6.5488935,6.5488971 0 0 1 6.54882,6.5469 6.5488935,6.5488971 0 0 1 -6.54882,6.5508 6.5488935,6.5488971 0 0 1 -6.54884,-6.5508 6.5488935,6.5488971 0 0 1 6.54884,-6.5469 z"
       style="fill:none;stroke:#000000;stroke-width:0.3125;stroke-miterlimit:4;stroke-dasharray:none" />
    <path
       inkscape:tile-y0="137.69527"
       inkscape:tile-x0="84.848145"
       inkscape:connector-curvature="0"
       id="use5623"
       d="m 254.87144,543.52811 a 15.593747,15.59375 0 0 0 -15.59376,15.5938 15.593747,15.59375 0 0 0 15.59376,15.5937 15.593747,15.59375 0 0 0 15.59375,-15.5937 15.593747,15.59375 0 0 0 -15.59375,-15.5938 z m 0,9.0449 a 6.5488935,6.5488971 0 0 1 6.54882,6.5469 6.5488935,6.5488971 0 0 1 -6.54882,6.5508 6.5488935,6.5488971 0 0 1 -6.54884,-6.5508 6.5488935,6.5488971 0 0 1 6.54884,-6.5469 z"
       style="fill:none;stroke:#000000;stroke-width:0.3125;stroke-miterlimit:4;stroke-dasharray:none" />
    <path
       inkscape:tile-y0="137.69527"
       inkscape:tile-x0="84.848145"
       inkscape:connector-curvature="0"
       id="use5625"
       d="m 254.87144,578.17811 a 15.593747,15.59375 0 0 0 -15.59376,15.5938 15.593747,15.59375 0 0 0 15.59376,15.5937 15.593747,15.59375 0 0 0 15.59375,-15.5937 15.593747,15.59375 0 0 0 -15.59375,-15.5938 z m 0,9.0449 a 6.5488935,6.5488971 0 0 1 6.54882,6.5469 6.5488935,6.5488971 0 0 1 -6.54882,6.5508 6.5488935,6.5488971 0 0 1 -6.54884,-6.5508 6.5488935,6.5488971 0 0 1 6.54884,-6.5469 z"
       style="fill:none;stroke:#000000;stroke-width:0.3125;stroke-miterlimit:4;stroke-dasharray:none" />
    <path
       inkscape:tile-y0="137.69527"
       inkscape:tile-x0="84.848145"
       inkscape:connector-curvature="0"
       id="use5627"
       d="m 254.87144,612.82811 a 15.593747,15.59375 0 0 0 -15.59376,15.5938 15.593747,15.59375 0 0 0 15.59376,15.5937 15.593747,15.59375 0 0 0 15.59375,-15.5937 15.593747,15.59375 0 0 0 -15.59375,-15.5938 z m 0,9.0449 a 6.5488935,6.5488971 0 0 1 6.54882,6.5469 6.5488935,6.5488971 0 0 1 -6.54882,6.5508 6.5488935,6.5488971 0 0 1 -6.54884,-6.5508 6.5488935,6.5488971 0 0 1 6.54884,-6.5469 z"
       style="fill:none;stroke:#000000;stroke-width:0.3125;stroke-miterlimit:4;stroke-dasharray:none" />
    <path
       inkscape:tile-y0="137.69527"
       inkscape:tile-x0="84.848145"
       inkscape:connector-curvature="0"
       id="use5629"
       d="m 254.87144,647.47811 a 15.593747,15.59375 0 0 0 -15.59376,15.5938 15.593747,15.59375 0 0 0 15.59376,15.5937 15.593747,15.59375 0 0 0 15.59375,-15.5937 15.593747,15.59375 0 0 0 -15.59375,-15.5938 z m 0,9.0449 a 6.5488935,6.5488971 0 0 1 6.54882,6.5469 6.5488935,6.5488971 0 0 1 -6.54882,6.5508 6.5488935,6.5488971 0 0 1 -6.54884,-6.5508 6.5488935,6.5488971 0 0 1 6.54884,-6.5469 z"
       style="fill:none;stroke:#000000;stroke-width:0.3125;stroke-miterlimit:4;stroke-dasharray:none" />
  </g>
</svg>
